<?xml version="1.0" encoding="utf-8" standalone="no"?>
<!DOCTYPE svg PUBLIC "-//W3C//DTD SVG 1.1//EN"
  "http://www.w3.org/Graphics/SVG/1.1/DTD/svg11.dtd">
<svg xmlns:xlink="http://www.w3.org/1999/xlink" width="460.8pt" height="345.6pt" viewBox="0 0 460.8 345.6" xmlns="http://www.w3.org/2000/svg" version="1.1">
 <metadata>
  <rdf:RDF xmlns:dc="http://purl.org/dc/elements/1.1/" xmlns:cc="http://creativecommons.org/ns#" xmlns:rdf="http://www.w3.org/1999/02/22-rdf-syntax-ns#">
   <cc:Work>
    <dc:type rdf:resource="http://purl.org/dc/dcmitype/StillImage"/>
    <dc:date>2023-07-29T17:26:59.741431</dc:date>
    <dc:format>image/svg+xml</dc:format>
    <dc:creator>
     <cc:Agent>
      <dc:title>Matplotlib v3.6.2, https://matplotlib.org/</dc:title>
     </cc:Agent>
    </dc:creator>
   </cc:Work>
  </rdf:RDF>
 </metadata>
 <defs>
  <style type="text/css">*{stroke-linejoin: round; stroke-linecap: butt}</style>
 </defs>
 <g id="figure_1">
  <g id="patch_1">
   <path d="M 0 345.6 
L 460.8 345.6 
L 460.8 0 
L 0 0 
z
" style="fill: #ffffff"/>
  </g>
  <g id="axes_1">
   <g id="patch_2">
    <path d="M 57.6 307.584 
L 414.72 307.584 
L 414.72 41.472 
L 57.6 41.472 
z
" style="fill: #ffffff"/>
   </g>
   <g id="matplotlib.axis_1">
    <g id="xtick_1">
     <g id="line2d_1">
      <defs>
       <path id="mea126a8b7e" d="M 0 0 
L 0 3.5 
" style="stroke: #000000; stroke-width: 0.8"/>
      </defs>
      <g>
       <use xlink:href="#mea126a8b7e" x="73.832727" y="307.584" style="stroke: #000000; stroke-width: 0.8"/>
      </g>
     </g>
     <g id="text_1">
      <!-- 0 -->
      <g transform="translate(70.651477 322.182437) scale(0.1 -0.1)">
       <defs>
        <path id="DejaVuSans-30" d="M 2034 4250 
Q 1547 4250 1301 3770 
Q 1056 3291 1056 2328 
Q 1056 1369 1301 889 
Q 1547 409 2034 409 
Q 2525 409 2770 889 
Q 3016 1369 3016 2328 
Q 3016 3291 2770 3770 
Q 2525 4250 2034 4250 
z
M 2034 4750 
Q 2819 4750 3233 4129 
Q 3647 3509 3647 2328 
Q 3647 1150 3233 529 
Q 2819 -91 2034 -91 
Q 1250 -91 836 529 
Q 422 1150 422 2328 
Q 422 3509 836 4129 
Q 1250 4750 2034 4750 
z
" transform="scale(0.015625)"/>
       </defs>
       <use xlink:href="#DejaVuSans-30"/>
      </g>
     </g>
    </g>
    <g id="xtick_2">
     <g id="line2d_2">
      <g>
       <use xlink:href="#mea126a8b7e" x="126.70806" y="307.584" style="stroke: #000000; stroke-width: 0.8"/>
      </g>
     </g>
     <g id="text_2">
      <!-- 50 -->
      <g transform="translate(120.34556 322.182437) scale(0.1 -0.1)">
       <defs>
        <path id="DejaVuSans-35" d="M 691 4666 
L 3169 4666 
L 3169 4134 
L 1269 4134 
L 1269 2991 
Q 1406 3038 1543 3061 
Q 1681 3084 1819 3084 
Q 2600 3084 3056 2656 
Q 3513 2228 3513 1497 
Q 3513 744 3044 326 
Q 2575 -91 1722 -91 
Q 1428 -91 1123 -41 
Q 819 9 494 109 
L 494 744 
Q 775 591 1075 516 
Q 1375 441 1709 441 
Q 2250 441 2565 725 
Q 2881 1009 2881 1497 
Q 2881 1984 2565 2268 
Q 2250 2553 1709 2553 
Q 1456 2553 1204 2497 
Q 953 2441 691 2322 
L 691 4666 
z
" transform="scale(0.015625)"/>
       </defs>
       <use xlink:href="#DejaVuSans-35"/>
       <use xlink:href="#DejaVuSans-30" x="63.623047"/>
      </g>
     </g>
    </g>
    <g id="xtick_3">
     <g id="line2d_3">
      <g>
       <use xlink:href="#mea126a8b7e" x="179.583394" y="307.584" style="stroke: #000000; stroke-width: 0.8"/>
      </g>
     </g>
     <g id="text_3">
      <!-- 100 -->
      <g transform="translate(170.039644 322.182437) scale(0.1 -0.1)">
       <defs>
        <path id="DejaVuSans-31" d="M 794 531 
L 1825 531 
L 1825 4091 
L 703 3866 
L 703 4441 
L 1819 4666 
L 2450 4666 
L 2450 531 
L 3481 531 
L 3481 0 
L 794 0 
L 794 531 
z
" transform="scale(0.015625)"/>
       </defs>
       <use xlink:href="#DejaVuSans-31"/>
       <use xlink:href="#DejaVuSans-30" x="63.623047"/>
       <use xlink:href="#DejaVuSans-30" x="127.246094"/>
      </g>
     </g>
    </g>
    <g id="xtick_4">
     <g id="line2d_4">
      <g>
       <use xlink:href="#mea126a8b7e" x="232.458727" y="307.584" style="stroke: #000000; stroke-width: 0.8"/>
      </g>
     </g>
     <g id="text_4">
      <!-- 150 -->
      <g transform="translate(222.914977 322.182437) scale(0.1 -0.1)">
       <use xlink:href="#DejaVuSans-31"/>
       <use xlink:href="#DejaVuSans-35" x="63.623047"/>
       <use xlink:href="#DejaVuSans-30" x="127.246094"/>
      </g>
     </g>
    </g>
    <g id="xtick_5">
     <g id="line2d_5">
      <g>
       <use xlink:href="#mea126a8b7e" x="285.33406" y="307.584" style="stroke: #000000; stroke-width: 0.8"/>
      </g>
     </g>
     <g id="text_5">
      <!-- 200 -->
      <g transform="translate(275.79031 322.182437) scale(0.1 -0.1)">
       <defs>
        <path id="DejaVuSans-32" d="M 1228 531 
L 3431 531 
L 3431 0 
L 469 0 
L 469 531 
Q 828 903 1448 1529 
Q 2069 2156 2228 2338 
Q 2531 2678 2651 2914 
Q 2772 3150 2772 3378 
Q 2772 3750 2511 3984 
Q 2250 4219 1831 4219 
Q 1534 4219 1204 4116 
Q 875 4013 500 3803 
L 500 4441 
Q 881 4594 1212 4672 
Q 1544 4750 1819 4750 
Q 2544 4750 2975 4387 
Q 3406 4025 3406 3419 
Q 3406 3131 3298 2873 
Q 3191 2616 2906 2266 
Q 2828 2175 2409 1742 
Q 1991 1309 1228 531 
z
" transform="scale(0.015625)"/>
       </defs>
       <use xlink:href="#DejaVuSans-32"/>
       <use xlink:href="#DejaVuSans-30" x="63.623047"/>
       <use xlink:href="#DejaVuSans-30" x="127.246094"/>
      </g>
     </g>
    </g>
    <g id="xtick_6">
     <g id="line2d_6">
      <g>
       <use xlink:href="#mea126a8b7e" x="338.209393" y="307.584" style="stroke: #000000; stroke-width: 0.8"/>
      </g>
     </g>
     <g id="text_6">
      <!-- 250 -->
      <g transform="translate(328.665643 322.182437) scale(0.1 -0.1)">
       <use xlink:href="#DejaVuSans-32"/>
       <use xlink:href="#DejaVuSans-35" x="63.623047"/>
       <use xlink:href="#DejaVuSans-30" x="127.246094"/>
      </g>
     </g>
    </g>
    <g id="xtick_7">
     <g id="line2d_7">
      <g>
       <use xlink:href="#mea126a8b7e" x="391.084726" y="307.584" style="stroke: #000000; stroke-width: 0.8"/>
      </g>
     </g>
     <g id="text_7">
      <!-- 300 -->
      <g transform="translate(381.540976 322.182437) scale(0.1 -0.1)">
       <defs>
        <path id="DejaVuSans-33" d="M 2597 2516 
Q 3050 2419 3304 2112 
Q 3559 1806 3559 1356 
Q 3559 666 3084 287 
Q 2609 -91 1734 -91 
Q 1441 -91 1130 -33 
Q 819 25 488 141 
L 488 750 
Q 750 597 1062 519 
Q 1375 441 1716 441 
Q 2309 441 2620 675 
Q 2931 909 2931 1356 
Q 2931 1769 2642 2001 
Q 2353 2234 1838 2234 
L 1294 2234 
L 1294 2753 
L 1863 2753 
Q 2328 2753 2575 2939 
Q 2822 3125 2822 3475 
Q 2822 3834 2567 4026 
Q 2313 4219 1838 4219 
Q 1578 4219 1281 4162 
Q 984 4106 628 3988 
L 628 4550 
Q 988 4650 1302 4700 
Q 1616 4750 1894 4750 
Q 2613 4750 3031 4423 
Q 3450 4097 3450 3541 
Q 3450 3153 3228 2886 
Q 3006 2619 2597 2516 
z
" transform="scale(0.015625)"/>
       </defs>
       <use xlink:href="#DejaVuSans-33"/>
       <use xlink:href="#DejaVuSans-30" x="63.623047"/>
       <use xlink:href="#DejaVuSans-30" x="127.246094"/>
      </g>
     </g>
    </g>
   </g>
   <g id="matplotlib.axis_2">
    <g id="ytick_1">
     <g id="line2d_8">
      <defs>
       <path id="m3e436d0cdd" d="M 0 0 
L -3.5 0 
" style="stroke: #000000; stroke-width: 0.8"/>
      </defs>
      <g>
       <use xlink:href="#m3e436d0cdd" x="57.6" y="270.338039" style="stroke: #000000; stroke-width: 0.8"/>
      </g>
     </g>
     <g id="text_8">
      <!-- −2 -->
      <g transform="translate(35.857813 274.137257) scale(0.1 -0.1)">
       <defs>
        <path id="DejaVuSans-2212" d="M 678 2272 
L 4684 2272 
L 4684 1741 
L 678 1741 
L 678 2272 
z
" transform="scale(0.015625)"/>
       </defs>
       <use xlink:href="#DejaVuSans-2212"/>
       <use xlink:href="#DejaVuSans-32" x="83.789062"/>
      </g>
     </g>
    </g>
    <g id="ytick_2">
     <g id="line2d_9">
      <g>
       <use xlink:href="#m3e436d0cdd" x="57.6" y="223.970116" style="stroke: #000000; stroke-width: 0.8"/>
      </g>
     </g>
     <g id="text_9">
      <!-- −1 -->
      <g transform="translate(35.857813 227.769335) scale(0.1 -0.1)">
       <use xlink:href="#DejaVuSans-2212"/>
       <use xlink:href="#DejaVuSans-31" x="83.789062"/>
      </g>
     </g>
    </g>
    <g id="ytick_3">
     <g id="line2d_10">
      <g>
       <use xlink:href="#m3e436d0cdd" x="57.6" y="177.602193" style="stroke: #000000; stroke-width: 0.8"/>
      </g>
     </g>
     <g id="text_10">
      <!-- 0 -->
      <g transform="translate(44.2375 181.401412) scale(0.1 -0.1)">
       <use xlink:href="#DejaVuSans-30"/>
      </g>
     </g>
    </g>
    <g id="ytick_4">
     <g id="line2d_11">
      <g>
       <use xlink:href="#m3e436d0cdd" x="57.6" y="131.234271" style="stroke: #000000; stroke-width: 0.8"/>
      </g>
     </g>
     <g id="text_11">
      <!-- 1 -->
      <g transform="translate(44.2375 135.033489) scale(0.1 -0.1)">
       <use xlink:href="#DejaVuSans-31"/>
      </g>
     </g>
    </g>
    <g id="ytick_5">
     <g id="line2d_12">
      <g>
       <use xlink:href="#m3e436d0cdd" x="57.6" y="84.866348" style="stroke: #000000; stroke-width: 0.8"/>
      </g>
     </g>
     <g id="text_12">
      <!-- 2 -->
      <g transform="translate(44.2375 88.665567) scale(0.1 -0.1)">
       <use xlink:href="#DejaVuSans-32"/>
      </g>
     </g>
    </g>
   </g>
   <g id="line2d_13">
    <path d="M 73.832727 177.602193 
L 74.890234 179.449711 
L 75.947741 179.147228 
L 77.005247 177.961929 
L 78.062754 177.069699 
L 79.120261 186.875778 
L 81.235274 186.875778 
L 82.292781 186.255348 
L 83.350287 182.254277 
L 84.407794 179.823453 
L 85.465301 179.617619 
L 86.522807 177.217758 
L 87.580314 168.328609 
L 88.637821 176.514166 
L 89.695327 177.727648 
L 90.752834 177.236075 
L 91.810341 178.189952 
L 92.867847 178.139888 
L 93.925354 177.959045 
L 94.982861 178.268141 
L 96.040367 179.193935 
L 97.097874 180.913754 
L 98.155381 186.875778 
L 100.270394 186.875778 
L 101.327901 173.98481 
L 102.385407 168.328609 
L 103.442914 177.062366 
L 104.50042 177.037844 
L 105.557927 176.809587 
L 106.615434 168.328609 
L 107.67294 186.875778 
L 108.730447 179.365616 
L 109.787954 176.047888 
L 110.84546 173.84749 
L 111.902967 176.788882 
L 112.960474 177.877976 
L 114.01798 177.668435 
L 116.132994 178.009276 
L 119.305514 179.252238 
L 120.36302 179.218316 
L 121.420527 178.674355 
L 122.478034 177.033038 
L 123.53554 177.632207 
L 124.593047 178.036971 
L 125.650554 178.225838 
L 126.70806 178.287136 
L 127.765567 178.731442 
L 129.88058 179.31001 
L 131.995594 179.218521 
L 134.110607 178.725438 
L 136.22562 178.502239 
L 138.340634 178.598701 
L 139.39814 179.320689 
L 140.455647 179.374916 
L 142.57066 179.715918 
L 144.685674 177.760012 
L 145.74318 178.570859 
L 146.800687 178.510729 
L 147.858194 178.690884 
L 148.9157 178.559719 
L 149.973207 178.597733 
L 151.030714 181.124734 
L 152.08822 180.794753 
L 153.145727 179.937861 
L 155.26074 168.328609 
L 157.375754 168.328609 
L 158.43326 172.893899 
L 160.548274 176.45585 
L 161.60578 176.284535 
L 162.663287 175.976909 
L 163.720794 173.935483 
L 164.7783 172.936633 
L 166.893314 168.328609 
L 170.065834 168.328609 
L 171.12334 175.345776 
L 172.180847 186.875778 
L 174.29586 186.875778 
L 176.410874 177.617912 
L 177.46838 176.972274 
L 178.525887 177.038469 
L 179.583394 176.576693 
L 180.6409 175.468514 
L 181.698407 174.631182 
L 182.755914 174.952811 
L 183.81342 174.784058 
L 184.870927 173.193656 
L 186.98594 177.561014 
L 188.043447 186.875778 
L 191.215967 186.875778 
L 192.273473 184.835522 
L 193.33098 175.454252 
L 194.388487 172.667168 
L 195.445993 174.715098 
L 196.5035 175.995096 
L 198.618513 175.975014 
L 199.67602 176.144897 
L 200.733527 175.255551 
L 201.791033 174.206079 
L 202.84854 173.467877 
L 203.906047 173.054049 
L 206.02106 175.076166 
L 207.078567 175.744271 
L 208.136073 176.054291 
L 209.19358 180.547301 
L 210.251087 186.875778 
L 217.653633 186.875778 
L 218.71114 168.328609 
L 220.826153 168.328609 
L 221.88366 174.714358 
L 222.941167 173.232032 
L 223.998673 168.328609 
L 230.343713 168.328609 
L 231.40122 169.47988 
L 232.458727 186.875778 
L 233.516233 175.4658 
L 234.57374 176.245329 
L 235.631247 179.459379 
L 236.688753 178.860929 
L 237.74626 180.634766 
L 238.803767 182.117899 
L 239.861273 186.448432 
L 240.91878 186.875778 
L 241.976287 186.875778 
L 243.033793 185.583069 
L 245.148807 178.102324 
L 246.206313 178.089422 
L 247.26382 186.875778 
L 248.321327 186.875778 
L 250.43634 177.727902 
L 251.493847 178.87654 
L 252.551353 177.890798 
L 253.60886 177.978136 
L 254.666367 177.778579 
L 255.723873 177.731441 
L 256.78138 177.902218 
L 257.838887 178.362635 
L 258.896393 178.643959 
L 259.9539 180.187186 
L 263.12642 179.657273 
L 264.183927 180.559183 
L 265.241433 173.023101 
L 266.29894 177.097204 
L 267.356447 177.868711 
L 269.47146 178.524773 
L 270.528967 178.603471 
L 271.586473 181.964866 
L 272.64398 186.059502 
L 273.701487 184.00609 
L 274.758993 176.376553 
L 275.8165 174.006869 
L 276.874007 168.328609 
L 277.931513 174.383087 
L 278.98902 172.300748 
L 280.046527 171.170829 
L 281.104033 168.328609 
L 282.16154 172.189424 
L 283.219046 174.502366 
L 284.276553 175.821209 
L 285.33406 178.455316 
L 286.391566 182.932028 
L 287.449073 179.183172 
L 289.564086 186.875778 
L 298.02414 186.875778 
L 299.081646 168.328609 
L 300.139153 173.541476 
L 301.19666 178.173741 
L 302.254166 180.573292 
L 303.311673 185.209315 
L 304.36918 178.907484 
L 305.426686 181.421158 
L 306.484193 180.179712 
L 307.5417 181.729679 
L 308.599206 185.542172 
L 309.656713 186.823162 
L 310.71422 176.836863 
L 311.771726 176.442301 
L 312.829233 177.884841 
L 313.88674 178.392573 
L 314.944246 184.488317 
L 316.001753 186.875778 
L 317.05926 186.101651 
L 319.174273 175.025128 
L 320.23178 177.032048 
L 321.289286 175.97944 
L 322.346793 177.481956 
L 324.461806 177.396822 
L 325.519313 179.243311 
L 326.57682 185.556542 
L 327.634326 186.875778 
L 331.864353 186.875778 
L 332.92186 168.328609 
L 345.61194 168.328609 
L 346.669446 183.17554 
L 347.726953 186.875778 
L 348.78446 183.094361 
L 349.841966 186.875778 
L 355.1295 186.875778 
L 356.187006 168.328609 
L 357.244513 168.328609 
L 358.30202 174.816896 
L 359.359526 175.226752 
L 360.417033 178.414819 
L 361.47454 186.875778 
L 366.762073 186.875778 
L 368.877086 168.328609 
L 369.934593 176.925443 
L 372.049606 177.135552 
L 373.107113 177.62622 
L 375.222126 177.932551 
L 376.279633 178.3301 
L 377.337139 179.971273 
L 378.394646 181.1923 
L 379.452153 182.653724 
L 381.567166 181.841865 
L 382.624673 179.556801 
L 383.682179 183.418927 
L 384.739686 186.764481 
L 386.854699 186.875778 
L 387.912206 172.943976 
L 388.969713 168.328609 
L 394.257246 168.328609 
L 396.372259 176.394328 
L 397.429766 177.774581 
L 398.487273 177.519516 
L 398.487273 177.519516 
" clip-path="url(#p7c6157b276)" style="fill: none; stroke: #000000; stroke-width: 1.5; stroke-linecap: square"/>
   </g>
   <g id="line2d_14">
    <path d="M 73.832727 177.602193 
L 74.890234 177.745934 
L 77.005247 177.764481 
L 78.062754 178.014868 
L 80.177767 171.43526 
L 81.235274 172.552726 
L 82.292781 174.472358 
L 84.407794 177.727387 
L 85.465301 178.923679 
L 87.580314 181.650113 
L 88.637821 181.288443 
L 96.040367 181.144703 
L 97.097874 181.149339 
L 98.155381 181.446094 
L 99.212887 181.956141 
L 102.385407 184.821679 
L 103.442914 184.63157 
L 106.615434 184.608386 
L 108.730447 181.246712 
L 110.84546 181.149339 
L 111.902967 180.922137 
L 115.075487 180.810854 
L 127.765567 180.871132 
L 128.823074 181.019509 
L 134.110607 182.354905 
L 138.340634 182.730486 
L 140.455647 182.906684 
L 141.513154 183.087519 
L 143.628167 183.810858 
L 146.800687 183.861863 
L 149.973207 183.8665 
L 151.030714 184.070518 
L 153.145727 185.526471 
L 154.203234 186.490924 
L 155.26074 187.024155 
L 156.318247 187.214264 
L 157.375754 186.124617 
L 158.43326 184.538835 
L 159.490767 183.467736 
L 162.663287 182.693391 
L 163.720794 182.480099 
L 164.7783 182.01642 
L 166.893314 180.857221 
L 169.008327 178.807759 
L 170.065834 177.574373 
L 171.12334 175.784571 
L 172.180847 175.325528 
L 173.238354 175.98859 
L 175.353367 178.362627 
L 176.410874 179.062783 
L 179.583394 179.08133 
L 182.755914 178.937589 
L 183.81342 178.937589 
L 184.870927 178.724297 
L 188.043447 177.569736 
L 191.215967 179.452273 
L 193.33098 181.626929 
L 194.388487 182.382726 
L 195.445993 181.886589 
L 196.5035 180.982415 
L 200.733527 180.504825 
L 203.906047 179.225071 
L 209.19358 176.48009 
L 210.251087 176.447632 
L 212.3661 178.042689 
L 213.423607 178.817033 
L 215.53862 180.861858 
L 216.596127 182.220438 
L 217.653633 183.375 
L 218.71114 184.728943 
L 219.768647 185.665575 
L 221.88366 184.868047 
L 223.998673 184.691849 
L 225.05618 184.24208 
L 227.171193 182.786127 
L 228.2287 181.075151 
L 230.343713 179.08133 
L 231.40122 177.634651 
L 232.458727 176.577462 
L 234.57374 176.155514 
L 235.631247 175.909764 
L 238.803767 175.928311 
L 239.861273 176.215792 
L 241.976287 177.769118 
L 244.0913 179.503278 
L 245.148807 180.648566 
L 246.206313 180.922137 
L 247.26382 177.565099 
L 248.321327 177.625377 
L 249.378833 178.747481 
L 250.43634 179.299259 
L 251.493847 180.175613 
L 252.551353 180.379632 
L 254.666367 180.495552 
L 257.838887 180.653203 
L 258.896393 180.653203 
L 259.9539 180.963868 
L 261.011407 181.409 
L 263.12642 181.983962 
L 264.183927 182.531103 
L 265.241433 182.786127 
L 266.29894 182.670207 
L 272.64398 182.818585 
L 273.701487 183.106066 
L 274.758993 183.755217 
L 276.874007 183.954599 
L 277.931513 182.994783 
L 278.98902 182.591382 
L 280.046527 182.048877 
L 282.16154 179.980868 
L 283.219046 179.19725 
L 284.276553 178.868038 
L 285.33406 178.673292 
L 287.449073 178.566646 
L 290.621593 178.594467 
L 291.6791 178.687203 
L 292.736606 178.988594 
L 293.794113 180.365721 
L 294.85162 181.242075 
L 295.909126 182.266806 
L 296.966633 181.353358 
L 298.02414 181.863405 
L 299.081646 183.361089 
L 300.139153 182.874226 
L 301.19666 181.65475 
L 302.254166 180.657839 
L 303.311673 179.966957 
L 306.484193 180.718118 
L 307.5417 180.421363 
L 309.656713 180.838674 
L 310.71422 181.77067 
L 311.771726 181.923684 
L 314.944246 181.909773 
L 316.001753 182.136976 
L 318.116766 183.430641 
L 319.174273 184.779948 
L 321.289286 184.886594 
L 326.57682 184.905141 
L 327.634326 185.443009 
L 328.691833 186.588297 
L 329.74934 187.56666 
L 330.806846 188.758315 
L 331.864353 189.036523 
L 335.036873 188.962334 
L 336.09438 188.860325 
L 337.151886 188.484745 
L 338.209393 187.460014 
L 340.324406 185.229717 
L 343.496926 182.238986 
L 344.554433 180.221981 
L 346.669446 178.144698 
L 347.726953 177.300802 
L 348.78446 177.555825 
L 349.841966 177.560462 
L 351.95698 178.766028 
L 353.014486 179.730481 
L 355.1295 181.932957 
L 356.187006 182.78149 
L 357.244513 182.354905 
L 359.359526 180.592924 
L 361.47454 177.85258 
L 362.532046 178.056599 
L 363.589553 178.385811 
L 364.64706 178.854127 
L 365.704566 179.447637 
L 366.762073 180.189523 
L 367.81958 181.093698 
L 368.877086 181.311627 
L 369.934593 181.255986 
L 373.107113 180.824764 
L 378.394646 180.857221 
L 379.452153 181.010236 
L 383.682179 182.503283 
L 384.739686 183.175618 
L 385.797193 183.713485 
L 388.969713 186.579023 
L 390.027219 186.180259 
L 391.084726 185.628481 
L 393.199739 184.158618 
L 395.314753 181.594471 
L 396.372259 180.592924 
L 397.429766 180.379632 
L 398.487273 180.286896 
L 398.487273 180.286896 
" clip-path="url(#p7c6157b276)" style="fill: none; stroke: #ff0000; stroke-width: 1.5; stroke-linecap: square"/>
   </g>
   <g id="line2d_15">
    <path d="M 73.832727 177.602193 
L 74.890234 171.857208 
L 75.947741 172.817024 
L 77.005247 174.77375 
L 78.062754 177.912858 
L 79.120261 166.631543 
L 80.177767 157.121482 
L 82.292781 169.158595 
L 83.350287 172.803113 
L 85.465301 176.994773 
L 86.522807 182.331721 
L 87.580314 184.051971 
L 88.637821 183.110702 
L 89.695327 180.681023 
L 90.752834 177.630014 
L 91.810341 175.594462 
L 92.867847 176.387354 
L 93.925354 176.628467 
L 94.982861 174.857212 
L 96.040367 170.813929 
L 97.097874 167.554264 
L 98.155381 165.810831 
L 99.212887 165.286873 
L 100.270394 168.245146 
L 101.327901 173.79075 
L 102.385407 183.987056 
L 103.442914 184.881957 
L 104.50042 185.419825 
L 105.557927 187.051976 
L 106.615434 189.231268 
L 107.67294 172.126142 
L 108.730447 166.90975 
L 109.787954 171.625368 
L 110.84546 177.013321 
L 111.902967 177.667108 
L 112.960474 177.041141 
L 114.01798 177.908222 
L 115.075487 177.23125 
L 116.132994 175.854123 
L 117.1905 174.28225 
L 118.248007 173.262156 
L 119.305514 172.455354 
L 120.36302 172.803113 
L 121.420527 174.119962 
L 122.478034 178.390448 
L 123.53554 177.745934 
L 124.593047 176.308528 
L 125.650554 175.209608 
L 126.70806 174.806208 
L 127.765567 173.929854 
L 128.823074 173.888123 
L 129.88058 174.254429 
L 130.938087 174.820118 
L 131.995594 174.847939 
L 133.0531 176.169424 
L 134.110607 176.48009 
L 135.168114 176.206519 
L 136.22562 176.215792 
L 137.283127 175.919038 
L 138.340634 175.181788 
L 139.39814 174.259066 
L 140.455647 174.101415 
L 141.513154 174.16633 
L 142.57066 175.084415 
L 143.628167 178.09833 
L 144.685674 178.21425 
L 145.74318 175.511 
L 146.800687 175.812391 
L 147.858194 175.130783 
L 148.9157 175.710382 
L 149.973207 175.473906 
L 151.030714 174.963858 
L 152.08822 175.051958 
L 153.145727 175.664014 
L 154.203234 180.463094 
L 155.26074 188.929877 
L 156.318247 192.903608 
L 157.375754 192.579032 
L 158.43326 189.379646 
L 159.490767 188.220448 
L 161.60578 188.953061 
L 162.663287 189.732042 
L 163.720794 192.101443 
L 164.7783 192.880424 
L 165.835807 194.925249 
L 166.893314 197.429117 
L 167.95082 199.358023 
L 169.008327 199.501763 
L 170.065834 197.572858 
L 171.12334 187.506382 
L 172.180847 171.569727 
L 173.238354 165.087491 
L 174.29586 165.620722 
L 176.410874 177.611467 
L 177.46838 180.824764 
L 178.525887 180.783033 
L 181.698407 192.843329 
L 182.755914 194.132358 
L 183.81342 194.776872 
L 184.870927 192.945339 
L 185.928434 185.582113 
L 188.043447 164.711911 
L 189.100954 162.194133 
L 190.15846 163.418246 
L 191.215967 165.504802 
L 192.273473 170.178689 
L 193.33098 176.387354 
L 194.388487 184.622297 
L 195.445993 185.512561 
L 196.5035 185.827863 
L 197.561007 188.41983 
L 198.618513 189.773773 
L 199.67602 189.528023 
L 200.733527 191.466202 
L 201.791033 194.322466 
L 202.84854 195.073627 
L 203.906047 195.231277 
L 204.963553 193.821693 
L 207.078567 189.509476 
L 208.136073 185.289995 
L 209.19358 176.563552 
L 210.251087 165.931387 
L 211.308593 156.476968 
L 212.3661 148.455317 
L 213.423607 141.940624 
L 214.481113 138.527945 
L 215.53862 138.973077 
L 216.596127 142.385756 
L 217.653633 149.257482 
L 218.71114 164.433703 
L 219.768647 175.946858 
L 220.826153 184.779948 
L 221.88366 187.065886 
L 223.998673 194.605311 
L 225.05618 196.766056 
L 226.113687 198.555858 
L 228.2287 200.85107 
L 229.286207 200.883527 
L 230.343713 200.206556 
L 231.40122 196.478575 
L 232.458727 191.976249 
L 233.516233 189.375009 
L 234.57374 185.285358 
L 235.631247 178.520278 
L 236.688753 172.626915 
L 237.74626 168.347156 
L 238.803767 166.371882 
L 239.861273 165.194137 
L 240.91878 166.177137 
L 241.976287 167.331698 
L 243.033793 168.912845 
L 244.0913 171.124594 
L 245.148807 177.783028 
L 246.206313 181.334811 
L 247.26382 168.25442 
L 248.321327 163.098307 
L 249.378833 171.268335 
L 250.43634 175.979316 
L 251.493847 179.827854 
L 252.551353 176.387354 
L 253.60886 175.98859 
L 254.666367 177.560462 
L 255.723873 178.126151 
L 257.838887 174.272976 
L 258.896393 172.970038 
L 259.9539 172.320887 
L 261.011407 172.983948 
L 262.068913 172.404349 
L 263.12642 171.036495 
L 264.183927 172.872665 
L 265.241433 180.082877 
L 266.29894 182.025693 
L 267.356447 179.076693 
L 269.47146 174.565094 
L 271.586473 169.144684 
L 272.64398 167.535717 
L 273.701487 168.769104 
L 274.758993 173.781476 
L 275.8165 177.741297 
L 276.874007 185.554292 
L 277.931513 188.832504 
L 278.98902 193.390471 
L 280.046527 195.041169 
L 281.104033 195.889702 
L 282.16154 192.597579 
L 285.33406 179.925226 
L 286.391566 173.456901 
L 288.50658 167.438345 
L 289.564086 161.201859 
L 290.621593 155.735081 
L 292.736606 142.144643 
L 293.794113 137.521761 
L 294.85162 138.546492 
L 295.909126 138.699506 
L 296.966633 131.864874 
L 298.02414 134.795327 
L 299.081646 158.327048 
L 300.139153 164.730458 
L 301.19666 167.25751 
L 302.254166 164.656269 
L 303.311673 164.19259 
L 304.36918 168.425981 
L 305.426686 169.928302 
L 306.484193 169.487807 
L 307.5417 166.942208 
L 308.599206 164.976208 
L 309.656713 166.279147 
L 310.71422 172.191057 
L 311.771726 176.415174 
L 312.829233 176.888127 
L 313.88674 172.31625 
L 316.001753 164.498618 
L 317.05926 167.595996 
L 318.116766 172.17251 
L 319.174273 179.424453 
L 320.23178 180.959231 
L 321.289286 179.962321 
L 322.346793 178.390448 
L 323.4043 178.399722 
L 324.461806 176.707292 
L 325.519313 173.651646 
L 326.57682 169.297698 
L 327.634326 165.745915 
L 328.691833 156.272949 
L 329.74934 150.977732 
L 330.806846 146.753614 
L 331.864353 144.240473 
L 332.92186 152.577425 
L 333.979366 163.010208 
L 335.036873 175.585189 
L 337.151886 195.620768 
L 338.209393 202.881985 
L 339.2669 205.983999 
L 340.324406 207.282301 
L 342.43942 210.291579 
L 343.496926 210.10147 
L 347.726953 180.940684 
L 348.78446 176.549641 
L 349.841966 169.478533 
L 350.899473 157.03802 
L 351.95698 148.116831 
L 353.014486 145.1261 
L 354.071993 149.748982 
L 355.1295 158.790727 
L 356.187006 168.894297 
L 357.244513 177.180245 
L 358.30202 187.056613 
L 359.359526 187.766042 
L 360.417033 181.427547 
L 361.47454 169.399708 
L 362.532046 160.691812 
L 363.589553 158.16476 
L 364.64706 156.161666 
L 365.704566 157.483152 
L 366.762073 162.138491 
L 367.81958 170.419802 
L 368.877086 182.670207 
L 369.934593 183.792311 
L 372.049606 178.960773 
L 373.107113 178.22816 
L 374.164619 177.221976 
L 375.222126 175.441448 
L 376.279633 173.378076 
L 377.337139 169.186415 
L 378.394646 167.846382 
L 379.452153 168.602179 
L 380.509659 169.830929 
L 381.567166 172.000948 
L 382.624673 172.473901 
L 383.682179 167.925208 
L 384.739686 166.543444 
L 385.797193 166.960755 
L 386.854699 166.868019 
L 387.912206 173.795387 
L 388.969713 192.48166 
L 390.027219 196.158636 
L 391.084726 197.605315 
L 392.142233 197.90207 
L 393.199739 196.140089 
L 394.257246 192.574396 
L 396.372259 179.21116 
L 397.429766 175.492453 
L 398.487273 174.987042 
L 398.487273 174.987042 
" clip-path="url(#p7c6157b276)" style="fill: none; stroke: #0000ff; stroke-width: 1.5; stroke-linecap: square"/>
   </g>
   <g id="line2d_16">
    <path d="M 73.832727 177.602193 
L 74.890234 178.469273 
L 75.947741 177.602193 
L 77.005247 177.801575 
L 78.062754 172.705741 
L 79.120261 148.94218 
L 80.177767 186.333273 
L 81.235274 183.528014 
L 82.292781 185.684122 
L 83.350287 186.857231 
L 84.407794 186.203443 
L 85.465301 186.041155 
L 86.522807 186.657849 
L 87.580314 182.085971 
L 88.637821 175.993226 
L 89.695327 177.602193 
L 90.752834 175.599099 
L 91.810341 177.602193 
L 96.040367 177.699566 
L 97.097874 177.801575 
L 99.212887 182.753669 
L 100.270394 184.552745 
L 101.327901 185.531108 
L 102.385407 186.073613 
L 103.442914 177.583646 
L 104.50042 177.681019 
L 106.615434 177.602193 
L 107.67294 169.863387 
L 108.730447 170.721194 
L 109.787954 177.495547 
L 110.84546 177.583646 
L 111.902967 174.64392 
L 112.960474 177.588283 
L 116.132994 177.602193 
L 117.1905 177.602193 
L 118.248007 177.801575 
L 119.305514 177.86649 
L 120.36302 177.60683 
L 126.70806 177.602193 
L 127.765567 178.770665 
L 128.823074 178.715023 
L 129.88058 179.317806 
L 131.995594 179.21116 
L 133.0531 179.021052 
L 136.22562 177.991684 
L 137.283127 177.991684 
L 138.340634 177.713476 
L 139.39814 178.84949 
L 140.455647 178.701113 
L 142.57066 179.45691 
L 143.628167 179.243618 
L 144.685674 177.602193 
L 149.973207 177.602193 
L 151.030714 182.401273 
L 152.08822 182.503283 
L 154.203234 180.769122 
L 155.26074 180.477004 
L 156.318247 170.994764 
L 157.375754 171.773745 
L 158.43326 170.280698 
L 159.490767 174.28225 
L 160.548274 175.914401 
L 161.60578 175.691835 
L 162.663287 175.830939 
L 163.720794 175.274524 
L 164.7783 173.076684 
L 165.835807 173.493995 
L 166.893314 172.047316 
L 167.95082 170.169415 
L 169.008327 169.056585 
L 170.065834 168.425981 
L 171.12334 174.940675 
L 172.180847 176.150877 
L 173.238354 182.795401 
L 174.29586 184.061245 
L 175.353367 183.477009 
L 176.410874 178.297712 
L 177.46838 177.602193 
L 179.583394 177.602193 
L 180.6409 173.735109 
L 181.698407 176.823212 
L 182.755914 177.597556 
L 183.81342 177.402811 
L 184.870927 175.645467 
L 185.928434 175.283797 
L 186.98594 175.668651 
L 188.043447 180.027236 
L 189.100954 182.183344 
L 190.15846 183.435278 
L 191.215967 184.279174 
L 192.273473 185.869594 
L 193.33098 186.732037 
L 194.388487 176.939132 
L 195.445993 171.198783 
L 196.5035 176.545005 
L 197.561007 177.532641 
L 198.618513 177.602193 
L 199.67602 176.13233 
L 200.733527 176.095236 
L 201.791033 175.807755 
L 203.906047 173.480085 
L 204.963553 173.136962 
L 206.02106 172.668646 
L 207.078567 174.616099 
L 208.136073 175.39508 
L 209.19358 175.909764 
L 210.251087 178.21425 
L 211.308593 183.240533 
L 212.3661 183.509467 
L 213.423607 185.405915 
L 214.481113 185.735127 
L 215.53862 186.889688 
L 216.596127 187.427556 
L 217.653633 186.087523 
L 218.71114 186.847957 
L 219.768647 183.541924 
L 220.826153 175.26525 
L 221.88366 172.54809 
L 222.941167 177.481637 
L 223.998673 176.85567 
L 226.113687 169.724283 
L 227.171193 169.357977 
L 228.2287 168.787651 
L 229.286207 169.617637 
L 231.40122 168.518717 
L 232.458727 168.894297 
L 233.516233 173.721198 
L 234.57374 176.285344 
L 235.631247 176.317802 
L 236.688753 177.602193 
L 237.74626 177.514094 
L 238.803767 178.580556 
L 239.861273 180.759849 
L 240.91878 184.130797 
L 241.976287 183.89432 
L 243.033793 183.875773 
L 244.0913 182.447641 
L 245.148807 182.91132 
L 246.206313 180.388905 
L 247.26382 152.939095 
L 248.321327 185.707306 
L 249.378833 183.082882 
L 250.43634 182.739759 
L 251.493847 182.582108 
L 252.551353 177.653198 
L 253.60886 177.602193 
L 254.666367 177.996321 
L 256.78138 178.070509 
L 257.838887 177.60683 
L 258.896393 177.602193 
L 259.9539 179.980868 
L 261.011407 180.31008 
L 262.068913 180.226618 
L 263.12642 180.022599 
L 264.183927 179.280712 
L 265.241433 177.908222 
L 266.29894 177.917495 
L 267.356447 177.602193 
L 268.413953 177.472363 
L 269.47146 177.60683 
L 271.586473 177.602193 
L 272.64398 181.19107 
L 273.701487 180.588287 
L 274.758993 181.144703 
L 275.8165 178.065873 
L 276.874007 175.817028 
L 277.931513 175.450722 
L 278.98902 175.353349 
L 280.046527 173.693377 
L 281.104033 170.730467 
L 282.16154 170.605274 
L 283.219046 174.463085 
L 285.33406 175.937585 
L 286.391566 177.481637 
L 288.50658 177.602193 
L 290.621593 177.704203 
L 291.6791 178.501731 
L 292.736606 185.229717 
L 294.85162 186.787679 
L 295.909126 186.917509 
L 296.966633 163.330147 
L 298.02414 182.925231 
L 299.081646 182.772217 
L 300.139153 172.487811 
L 301.19666 170.823203 
L 302.254166 170.572816 
L 303.311673 178.483184 
L 304.36918 179.786122 
L 305.426686 180.634655 
L 306.484193 180.829401 
L 307.5417 176.058141 
L 308.599206 178.57592 
L 309.656713 180.565104 
L 310.71422 185.994787 
L 311.771726 177.959226 
L 312.829233 177.435269 
L 313.88674 177.597556 
L 314.944246 177.602193 
L 316.001753 184.784585 
L 317.05926 183.50483 
L 318.116766 184.209622 
L 319.174273 185.23899 
L 320.23178 177.49091 
L 321.289286 178.260618 
L 322.346793 177.611467 
L 325.519313 177.602193 
L 326.57682 178.204976 
L 327.634326 182.8835 
L 328.691833 185.892778 
L 329.74934 186.129254 
L 330.806846 185.373457 
L 331.864353 177.62074 
L 332.92186 177.602193 
L 333.979366 177.439906 
L 336.09438 175.566641 
L 337.151886 173.874212 
L 338.209393 171.059679 
L 339.2669 170.257514 
L 340.324406 170.294609 
L 341.381913 169.325519 
L 342.43942 169.1215 
L 343.496926 168.041128 
L 344.554433 169.293062 
L 345.61194 169.051948 
L 346.669446 168.476986 
L 347.726953 174.917491 
L 348.78446 177.425995 
L 349.841966 177.847943 
L 350.899473 182.090608 
L 351.95698 183.602202 
L 353.014486 184.881957 
L 354.071993 186.630028 
L 355.1295 186.885051 
L 356.187006 185.35491 
L 357.244513 173.716561 
L 358.30202 171.657826 
L 359.359526 171.18951 
L 360.417033 169.909755 
L 361.47454 173.336344 
L 362.532046 179.317806 
L 363.589553 181.371905 
L 364.64706 182.776853 
L 365.704566 183.796948 
L 366.762073 184.575929 
L 367.81958 184.047335 
L 368.877086 177.500184 
L 369.934593 176.572825 
L 372.049606 176.048868 
L 373.107113 177.565099 
L 376.279633 177.602193 
L 378.394646 177.62074 
L 379.452153 180.027236 
L 380.509659 180.996325 
L 381.567166 181.752122 
L 382.624673 179.841764 
L 383.682179 179.174066 
L 384.739686 181.803127 
L 385.797193 182.50792 
L 386.854699 186.690306 
L 387.912206 186.421372 
L 388.969713 172.789203 
L 390.027219 172.919033 
L 391.084726 172.269882 
L 393.199739 170.160142 
L 394.257246 168.885024 
L 395.314753 168.722736 
L 396.372259 169.983944 
L 397.429766 176.350259 
L 398.487273 175.691835 
L 398.487273 175.691835 
" clip-path="url(#p7c6157b276)" style="fill: none; stroke: #bf00bf; stroke-width: 1.5; stroke-linecap: square"/>
   </g>
   <g id="line2d_17">
    <path d="M 73.832727 177.602193 
L 74.890234 176.902038 
L 75.947741 182.099882 
L 77.005247 183.889684 
L 78.062754 151.381133 
L 79.120261 68.187806 
L 80.177767 216.555885 
L 81.235274 196.650136 
L 82.292781 201.398211 
L 83.350287 193.506391 
L 84.407794 188.382735 
L 85.465301 190.130806 
L 86.522807 225.565173 
L 87.580314 107.521715 
L 88.637821 165.277599 
L 89.695327 187.144712 
L 90.752834 151.306944 
L 91.810341 174.820118 
L 92.867847 188.591391 
L 93.925354 169.455349 
L 94.982861 169.084406 
L 96.040367 157.821637 
L 97.097874 171.351797 
L 98.155381 173.359528 
L 99.212887 188.79541 
L 100.270394 211.650159 
L 101.327901 240.25453 
L 102.385407 242.46628 
L 103.442914 190.473929 
L 104.50042 181.473915 
L 105.557927 192.328646 
L 106.615434 168.796925 
L 107.67294 113.433625 
L 108.730447 175.302344 
L 109.787954 220.418333 
L 110.84546 217.710446 
L 111.902967 174.374986 
L 112.960474 173.582094 
L 114.01798 187.255995 
L 115.075487 167.595996 
L 116.132994 165.476981 
L 117.1905 169.23742 
L 118.248007 166.937571 
L 119.305514 182.498646 
L 120.36302 182.78149 
L 121.420527 195.300829 
L 122.478034 202.181829 
L 123.53554 170.46617 
L 124.593047 171.231241 
L 125.650554 172.701104 
L 126.70806 171.514085 
L 127.765567 179.841764 
L 128.823074 171.147778 
L 129.88058 181.399726 
L 130.938087 181.492462 
L 131.995594 176.526457 
L 133.0531 178.033415 
L 134.110607 173.303887 
L 135.168114 176.331712 
L 136.22562 175.75675 
L 137.283127 172.881939 
L 138.340634 166.965392 
L 139.39814 173.962311 
L 140.455647 178.469273 
L 141.513154 178.70575 
L 142.57066 186.203443 
L 143.628167 195.421386 
L 144.685674 171.82475 
L 145.74318 171.861844 
L 146.800687 181.779943 
L 147.858194 176.721203 
L 148.9157 179.786122 
L 149.973207 166.622269 
L 151.030714 192.208089 
L 152.08822 180.750575 
L 153.145727 182.007146 
L 154.203234 219.444607 
L 155.26074 208.640881 
L 157.375754 168.523354 
L 158.43326 168.490896 
L 159.490767 176.577462 
L 160.548274 182.308537 
L 161.60578 182.642386 
L 162.663287 182.800037 
L 163.720794 203.07673 
L 164.7783 174.852575 
L 165.835807 193.409018 
L 166.893314 196.362655 
L 167.95082 192.36574 
L 169.008327 177.949953 
L 170.065834 146.466133 
L 171.12334 148.251298 
L 172.180847 105.857106 
L 173.238354 173.80466 
L 174.29586 196.93298 
L 175.353367 217.265314 
L 176.410874 202.061273 
L 177.46838 169.441439 
L 178.525887 189.249815 
L 179.583394 205.344121 
L 180.6409 206.211202 
L 181.698407 197.939164 
L 182.755914 179.772212 
L 183.81342 186.509471 
L 184.870927 142.956081 
L 185.928434 134.178634 
L 186.98594 131.674766 
L 188.043447 114.435172 
L 189.100954 194.164815 
L 191.215967 199.237466 
L 192.273473 225.041215 
L 193.33098 231.212786 
L 194.388487 242.716667 
L 195.445993 169.650095 
L 196.5035 193.130811 
L 197.561007 195.161726 
L 198.618513 184.306995 
L 199.67602 171.639278 
L 200.733527 195.741325 
L 201.791033 188.109165 
L 202.84854 182.50792 
L 203.906047 174.472358 
L 204.963553 159.63926 
L 206.02106 154.636161 
L 207.078567 165.393519 
L 208.136073 155.897369 
L 209.19358 119.364082 
L 210.251087 103.130673 
L 211.308593 113.660828 
L 212.3661 98.489244 
L 213.423607 136.177091 
L 214.481113 168.115316 
L 215.53862 192.124627 
L 216.596127 195.875792 
L 217.653633 254.188091 
L 218.71114 291.871302 
L 219.768647 278.225222 
L 221.88366 195.194183 
L 222.941167 211.682616 
L 223.998673 209.415225 
L 225.05618 193.821693 
L 226.113687 182.656297 
L 227.171193 186.894325 
L 228.2287 185.234353 
L 230.343713 167.572812 
L 231.40122 147.838624 
L 232.458727 84.829253 
L 233.516233 140.289926 
L 234.57374 127.77986 
L 235.631247 121.024054 
L 236.688753 127.603662 
L 237.74626 170.855661 
L 238.803767 152.340949 
L 239.861273 175.687198 
L 240.91878 186.94533 
L 241.976287 189.611485 
L 243.033793 181.659387 
L 244.0913 195.681046 
L 245.148807 211.228211 
L 246.206313 193.6084 
L 247.26382 61.765849 
L 248.321327 209.36422 
L 249.378833 216.806272 
L 250.43634 219.732088 
L 251.493847 162.254411 
L 252.551353 167.220415 
L 253.60886 176.582099 
L 254.666367 183.310085 
L 255.723873 179.897405 
L 256.78138 157.149303 
L 257.838887 162.676359 
L 258.896393 153.068925 
L 259.9539 178.506368 
L 261.011407 184.492467 
L 262.068913 174.347165 
L 263.12642 160.951472 
L 264.183927 211.31631 
L 265.241433 227.846474 
L 266.29894 169.701099 
L 267.356447 157.274496 
L 268.413953 163.659359 
L 269.47146 151.575878 
L 270.528967 147.718067 
L 271.586473 141.676327 
L 272.64398 186.653212 
L 273.701487 192.398197 
L 274.758993 219.263772 
L 275.8165 213.439961 
L 276.874007 235.251432 
L 277.931513 202.979357 
L 278.98902 177.690292 
L 280.046527 191.13699 
L 281.104033 163.061213 
L 282.16154 146.257478 
L 283.219046 141.254379 
L 284.276553 147.133831 
L 285.33406 122.007054 
L 286.391566 132.328554 
L 287.449073 155.855638 
L 288.50658 141.731968 
L 289.564086 151.25594 
L 290.621593 140.044176 
L 291.6791 121.473823 
L 292.736606 136.724233 
L 293.794113 175.895854 
L 294.85162 188.6934 
L 295.909126 163.200316 
L 296.966633 117.277526 
L 298.02414 248.155624 
L 299.081646 280.780095 
L 300.139153 230.749106 
L 301.19666 161.327052 
L 302.254166 166.863382 
L 303.311673 204.439947 
L 304.36918 195.356471 
L 306.484193 167.123043 
L 307.5417 145.061185 
L 308.599206 172.209604 
L 309.656713 189.064344 
L 310.71422 234.889762 
L 311.771726 208.548145 
L 312.829233 149.192567 
L 313.88674 146.748977 
L 314.944246 132.096714 
L 316.001753 189.189537 
L 317.05926 219.198857 
L 318.116766 218.002564 
L 319.174273 225.20814 
L 320.23178 173.294613 
L 321.289286 155.725807 
L 323.4043 183.954599 
L 324.461806 154.747444 
L 325.519313 143.855619 
L 326.57682 134.141539 
L 327.634326 130.362554 
L 328.691833 127.413554 
L 329.74934 128.897327 
L 330.806846 151.561968 
L 331.864353 177.824759 
L 332.92186 248.081436 
L 333.979366 274.246855 
L 335.036873 281.902199 
L 336.09438 295.488 
L 337.151886 229.882026 
L 338.209393 204.569777 
L 339.2669 188.271452 
L 340.324406 183.685665 
L 341.381913 190.756773 
L 342.43942 186.249811 
L 343.496926 163.770642 
L 344.554433 125.243535 
L 345.61194 104.535621 
L 346.669446 93.801447 
L 347.726953 120.954502 
L 348.78446 116.313073 
L 349.841966 103.78446 
L 350.899473 53.568 
L 351.95698 126.286813 
L 353.014486 183.365726 
L 354.071993 233.127781 
L 355.1295 275.266949 
L 356.187006 278.693538 
L 357.244513 251.953157 
L 358.30202 188.591391 
L 359.359526 178.010231 
L 360.417033 121.446002 
L 361.47454 86.303753 
L 362.532046 109.019399 
L 363.589553 150.138473 
L 364.64706 171.959217 
L 365.704566 205.66406 
L 366.762073 232.293158 
L 367.81958 255.657954 
L 368.877086 251.415289 
L 369.934593 149.062737 
L 370.992099 170.688736 
L 372.049606 159.361052 
L 373.107113 174.694925 
L 375.222126 161.118397 
L 376.279633 150.606789 
L 378.394646 178.177156 
L 379.452153 186.574386 
L 380.509659 189.30082 
L 381.567166 201.528041 
L 382.624673 153.101383 
L 383.682179 188.387372 
L 384.739686 172.279156 
L 385.797193 176.266797 
L 386.854699 198.657867 
L 387.912206 286.228326 
L 388.969713 230.26688 
L 390.027219 195.69032 
L 391.084726 187.478561 
L 392.142233 154.928279 
L 393.199739 154.08902 
L 394.257246 143.920534 
L 395.314753 122.994691 
L 396.372259 125.572747 
L 397.429766 169.35334 
L 398.487273 166.038033 
L 398.487273 166.038033 
" clip-path="url(#p7c6157b276)" style="fill: none; stroke: #008000; stroke-width: 1.5; stroke-linecap: square"/>
   </g>
   <g id="patch_3">
    <path d="M 57.6 307.584 
L 57.6 41.472 
" style="fill: none; stroke: #000000; stroke-width: 0.8; stroke-linejoin: miter; stroke-linecap: square"/>
   </g>
   <g id="patch_4">
    <path d="M 414.72 307.584 
L 414.72 41.472 
" style="fill: none; stroke: #000000; stroke-width: 0.8; stroke-linejoin: miter; stroke-linecap: square"/>
   </g>
   <g id="patch_5">
    <path d="M 57.6 307.584 
L 414.72 307.584 
" style="fill: none; stroke: #000000; stroke-width: 0.8; stroke-linejoin: miter; stroke-linecap: square"/>
   </g>
   <g id="patch_6">
    <path d="M 57.6 41.472 
L 414.72 41.472 
" style="fill: none; stroke: #000000; stroke-width: 0.8; stroke-linejoin: miter; stroke-linecap: square"/>
   </g>
  </g>
 </g>
 <defs>
  <clipPath id="p7c6157b276">
   <rect x="57.6" y="41.472" width="357.12" height="266.112"/>
  </clipPath>
 </defs>
</svg>
