<?xml version="1.0" encoding="utf-8" standalone="no"?>
<!DOCTYPE svg PUBLIC "-//W3C//DTD SVG 1.1//EN"
  "http://www.w3.org/Graphics/SVG/1.1/DTD/svg11.dtd">
<svg xmlns:xlink="http://www.w3.org/1999/xlink" width="460.8pt" height="345.6pt" viewBox="0 0 460.8 345.6" xmlns="http://www.w3.org/2000/svg" version="1.1">
 <metadata>
  <rdf:RDF xmlns:dc="http://purl.org/dc/elements/1.1/" xmlns:cc="http://creativecommons.org/ns#" xmlns:rdf="http://www.w3.org/1999/02/22-rdf-syntax-ns#">
   <cc:Work>
    <dc:type rdf:resource="http://purl.org/dc/dcmitype/StillImage"/>
    <dc:date>2023-07-28T15:57:49.706253</dc:date>
    <dc:format>image/svg+xml</dc:format>
    <dc:creator>
     <cc:Agent>
      <dc:title>Matplotlib v3.6.2, https://matplotlib.org/</dc:title>
     </cc:Agent>
    </dc:creator>
   </cc:Work>
  </rdf:RDF>
 </metadata>
 <defs>
  <style type="text/css">*{stroke-linejoin: round; stroke-linecap: butt}</style>
 </defs>
 <g id="figure_1">
  <g id="patch_1">
   <path d="M 0 345.6 
L 460.8 345.6 
L 460.8 0 
L 0 0 
z
" style="fill: #ffffff"/>
  </g>
  <g id="axes_1">
   <g id="patch_2">
    <path d="M 57.6 307.584 
L 414.72 307.584 
L 414.72 41.472 
L 57.6 41.472 
z
" style="fill: #ffffff"/>
   </g>
   <g id="matplotlib.axis_1">
    <g id="xtick_1">
     <g id="line2d_1">
      <defs>
       <path id="m00c0b76d67" d="M 0 0 
L 0 3.5 
" style="stroke: #000000; stroke-width: 0.8"/>
      </defs>
      <g>
       <use xlink:href="#m00c0b76d67" x="73.832727" y="307.584" style="stroke: #000000; stroke-width: 0.8"/>
      </g>
     </g>
     <g id="text_1">
      <!-- 0 -->
      <g transform="translate(70.651477 322.182437) scale(0.1 -0.1)">
       <defs>
        <path id="DejaVuSans-30" d="M 2034 4250 
Q 1547 4250 1301 3770 
Q 1056 3291 1056 2328 
Q 1056 1369 1301 889 
Q 1547 409 2034 409 
Q 2525 409 2770 889 
Q 3016 1369 3016 2328 
Q 3016 3291 2770 3770 
Q 2525 4250 2034 4250 
z
M 2034 4750 
Q 2819 4750 3233 4129 
Q 3647 3509 3647 2328 
Q 3647 1150 3233 529 
Q 2819 -91 2034 -91 
Q 1250 -91 836 529 
Q 422 1150 422 2328 
Q 422 3509 836 4129 
Q 1250 4750 2034 4750 
z
" transform="scale(0.015625)"/>
       </defs>
       <use xlink:href="#DejaVuSans-30"/>
      </g>
     </g>
    </g>
    <g id="xtick_2">
     <g id="line2d_2">
      <g>
       <use xlink:href="#m00c0b76d67" x="118.003414" y="307.584" style="stroke: #000000; stroke-width: 0.8"/>
      </g>
     </g>
     <g id="text_2">
      <!-- 100 -->
      <g transform="translate(108.459664 322.182437) scale(0.1 -0.1)">
       <defs>
        <path id="DejaVuSans-31" d="M 794 531 
L 1825 531 
L 1825 4091 
L 703 3866 
L 703 4441 
L 1819 4666 
L 2450 4666 
L 2450 531 
L 3481 531 
L 3481 0 
L 794 0 
L 794 531 
z
" transform="scale(0.015625)"/>
       </defs>
       <use xlink:href="#DejaVuSans-31"/>
       <use xlink:href="#DejaVuSans-30" x="63.623047"/>
       <use xlink:href="#DejaVuSans-30" x="127.246094"/>
      </g>
     </g>
    </g>
    <g id="xtick_3">
     <g id="line2d_3">
      <g>
       <use xlink:href="#m00c0b76d67" x="162.1741" y="307.584" style="stroke: #000000; stroke-width: 0.8"/>
      </g>
     </g>
     <g id="text_3">
      <!-- 200 -->
      <g transform="translate(152.63035 322.182437) scale(0.1 -0.1)">
       <defs>
        <path id="DejaVuSans-32" d="M 1228 531 
L 3431 531 
L 3431 0 
L 469 0 
L 469 531 
Q 828 903 1448 1529 
Q 2069 2156 2228 2338 
Q 2531 2678 2651 2914 
Q 2772 3150 2772 3378 
Q 2772 3750 2511 3984 
Q 2250 4219 1831 4219 
Q 1534 4219 1204 4116 
Q 875 4013 500 3803 
L 500 4441 
Q 881 4594 1212 4672 
Q 1544 4750 1819 4750 
Q 2544 4750 2975 4387 
Q 3406 4025 3406 3419 
Q 3406 3131 3298 2873 
Q 3191 2616 2906 2266 
Q 2828 2175 2409 1742 
Q 1991 1309 1228 531 
z
" transform="scale(0.015625)"/>
       </defs>
       <use xlink:href="#DejaVuSans-32"/>
       <use xlink:href="#DejaVuSans-30" x="63.623047"/>
       <use xlink:href="#DejaVuSans-30" x="127.246094"/>
      </g>
     </g>
    </g>
    <g id="xtick_4">
     <g id="line2d_4">
      <g>
       <use xlink:href="#m00c0b76d67" x="206.344787" y="307.584" style="stroke: #000000; stroke-width: 0.8"/>
      </g>
     </g>
     <g id="text_4">
      <!-- 300 -->
      <g transform="translate(196.801037 322.182437) scale(0.1 -0.1)">
       <defs>
        <path id="DejaVuSans-33" d="M 2597 2516 
Q 3050 2419 3304 2112 
Q 3559 1806 3559 1356 
Q 3559 666 3084 287 
Q 2609 -91 1734 -91 
Q 1441 -91 1130 -33 
Q 819 25 488 141 
L 488 750 
Q 750 597 1062 519 
Q 1375 441 1716 441 
Q 2309 441 2620 675 
Q 2931 909 2931 1356 
Q 2931 1769 2642 2001 
Q 2353 2234 1838 2234 
L 1294 2234 
L 1294 2753 
L 1863 2753 
Q 2328 2753 2575 2939 
Q 2822 3125 2822 3475 
Q 2822 3834 2567 4026 
Q 2313 4219 1838 4219 
Q 1578 4219 1281 4162 
Q 984 4106 628 3988 
L 628 4550 
Q 988 4650 1302 4700 
Q 1616 4750 1894 4750 
Q 2613 4750 3031 4423 
Q 3450 4097 3450 3541 
Q 3450 3153 3228 2886 
Q 3006 2619 2597 2516 
z
" transform="scale(0.015625)"/>
       </defs>
       <use xlink:href="#DejaVuSans-33"/>
       <use xlink:href="#DejaVuSans-30" x="63.623047"/>
       <use xlink:href="#DejaVuSans-30" x="127.246094"/>
      </g>
     </g>
    </g>
    <g id="xtick_5">
     <g id="line2d_5">
      <g>
       <use xlink:href="#m00c0b76d67" x="250.515473" y="307.584" style="stroke: #000000; stroke-width: 0.8"/>
      </g>
     </g>
     <g id="text_5">
      <!-- 400 -->
      <g transform="translate(240.971723 322.182437) scale(0.1 -0.1)">
       <defs>
        <path id="DejaVuSans-34" d="M 2419 4116 
L 825 1625 
L 2419 1625 
L 2419 4116 
z
M 2253 4666 
L 3047 4666 
L 3047 1625 
L 3713 1625 
L 3713 1100 
L 3047 1100 
L 3047 0 
L 2419 0 
L 2419 1100 
L 313 1100 
L 313 1709 
L 2253 4666 
z
" transform="scale(0.015625)"/>
       </defs>
       <use xlink:href="#DejaVuSans-34"/>
       <use xlink:href="#DejaVuSans-30" x="63.623047"/>
       <use xlink:href="#DejaVuSans-30" x="127.246094"/>
      </g>
     </g>
    </g>
    <g id="xtick_6">
     <g id="line2d_6">
      <g>
       <use xlink:href="#m00c0b76d67" x="294.68616" y="307.584" style="stroke: #000000; stroke-width: 0.8"/>
      </g>
     </g>
     <g id="text_6">
      <!-- 500 -->
      <g transform="translate(285.14241 322.182437) scale(0.1 -0.1)">
       <defs>
        <path id="DejaVuSans-35" d="M 691 4666 
L 3169 4666 
L 3169 4134 
L 1269 4134 
L 1269 2991 
Q 1406 3038 1543 3061 
Q 1681 3084 1819 3084 
Q 2600 3084 3056 2656 
Q 3513 2228 3513 1497 
Q 3513 744 3044 326 
Q 2575 -91 1722 -91 
Q 1428 -91 1123 -41 
Q 819 9 494 109 
L 494 744 
Q 775 591 1075 516 
Q 1375 441 1709 441 
Q 2250 441 2565 725 
Q 2881 1009 2881 1497 
Q 2881 1984 2565 2268 
Q 2250 2553 1709 2553 
Q 1456 2553 1204 2497 
Q 953 2441 691 2322 
L 691 4666 
z
" transform="scale(0.015625)"/>
       </defs>
       <use xlink:href="#DejaVuSans-35"/>
       <use xlink:href="#DejaVuSans-30" x="63.623047"/>
       <use xlink:href="#DejaVuSans-30" x="127.246094"/>
      </g>
     </g>
    </g>
    <g id="xtick_7">
     <g id="line2d_7">
      <g>
       <use xlink:href="#m00c0b76d67" x="338.856846" y="307.584" style="stroke: #000000; stroke-width: 0.8"/>
      </g>
     </g>
     <g id="text_7">
      <!-- 600 -->
      <g transform="translate(329.313096 322.182437) scale(0.1 -0.1)">
       <defs>
        <path id="DejaVuSans-36" d="M 2113 2584 
Q 1688 2584 1439 2293 
Q 1191 2003 1191 1497 
Q 1191 994 1439 701 
Q 1688 409 2113 409 
Q 2538 409 2786 701 
Q 3034 994 3034 1497 
Q 3034 2003 2786 2293 
Q 2538 2584 2113 2584 
z
M 3366 4563 
L 3366 3988 
Q 3128 4100 2886 4159 
Q 2644 4219 2406 4219 
Q 1781 4219 1451 3797 
Q 1122 3375 1075 2522 
Q 1259 2794 1537 2939 
Q 1816 3084 2150 3084 
Q 2853 3084 3261 2657 
Q 3669 2231 3669 1497 
Q 3669 778 3244 343 
Q 2819 -91 2113 -91 
Q 1303 -91 875 529 
Q 447 1150 447 2328 
Q 447 3434 972 4092 
Q 1497 4750 2381 4750 
Q 2619 4750 2861 4703 
Q 3103 4656 3366 4563 
z
" transform="scale(0.015625)"/>
       </defs>
       <use xlink:href="#DejaVuSans-36"/>
       <use xlink:href="#DejaVuSans-30" x="63.623047"/>
       <use xlink:href="#DejaVuSans-30" x="127.246094"/>
      </g>
     </g>
    </g>
    <g id="xtick_8">
     <g id="line2d_8">
      <g>
       <use xlink:href="#m00c0b76d67" x="383.027532" y="307.584" style="stroke: #000000; stroke-width: 0.8"/>
      </g>
     </g>
     <g id="text_8">
      <!-- 700 -->
      <g transform="translate(373.483782 322.182437) scale(0.1 -0.1)">
       <defs>
        <path id="DejaVuSans-37" d="M 525 4666 
L 3525 4666 
L 3525 4397 
L 1831 0 
L 1172 0 
L 2766 4134 
L 525 4134 
L 525 4666 
z
" transform="scale(0.015625)"/>
       </defs>
       <use xlink:href="#DejaVuSans-37"/>
       <use xlink:href="#DejaVuSans-30" x="63.623047"/>
       <use xlink:href="#DejaVuSans-30" x="127.246094"/>
      </g>
     </g>
    </g>
   </g>
   <g id="matplotlib.axis_2">
    <g id="ytick_1">
     <g id="line2d_9">
      <defs>
       <path id="m4992a71a5d" d="M 0 0 
L -3.5 0 
" style="stroke: #000000; stroke-width: 0.8"/>
      </defs>
      <g>
       <use xlink:href="#m4992a71a5d" x="57.6" y="297.154957" style="stroke: #000000; stroke-width: 0.8"/>
      </g>
     </g>
     <g id="text_9">
      <!-- −10.0 -->
      <g transform="translate(19.954687 300.954176) scale(0.1 -0.1)">
       <defs>
        <path id="DejaVuSans-2212" d="M 678 2272 
L 4684 2272 
L 4684 1741 
L 678 1741 
L 678 2272 
z
" transform="scale(0.015625)"/>
        <path id="DejaVuSans-2e" d="M 684 794 
L 1344 794 
L 1344 0 
L 684 0 
L 684 794 
z
" transform="scale(0.015625)"/>
       </defs>
       <use xlink:href="#DejaVuSans-2212"/>
       <use xlink:href="#DejaVuSans-31" x="83.789062"/>
       <use xlink:href="#DejaVuSans-30" x="147.412109"/>
       <use xlink:href="#DejaVuSans-2e" x="211.035156"/>
       <use xlink:href="#DejaVuSans-30" x="242.822266"/>
      </g>
     </g>
    </g>
    <g id="ytick_2">
     <g id="line2d_10">
      <g>
       <use xlink:href="#m4992a71a5d" x="57.6" y="267.152129" style="stroke: #000000; stroke-width: 0.8"/>
      </g>
     </g>
     <g id="text_10">
      <!-- −7.5 -->
      <g transform="translate(26.317187 270.951348) scale(0.1 -0.1)">
       <use xlink:href="#DejaVuSans-2212"/>
       <use xlink:href="#DejaVuSans-37" x="83.789062"/>
       <use xlink:href="#DejaVuSans-2e" x="147.412109"/>
       <use xlink:href="#DejaVuSans-35" x="179.199219"/>
      </g>
     </g>
    </g>
    <g id="ytick_3">
     <g id="line2d_11">
      <g>
       <use xlink:href="#m4992a71a5d" x="57.6" y="237.149302" style="stroke: #000000; stroke-width: 0.8"/>
      </g>
     </g>
     <g id="text_11">
      <!-- −5.0 -->
      <g transform="translate(26.317187 240.948521) scale(0.1 -0.1)">
       <use xlink:href="#DejaVuSans-2212"/>
       <use xlink:href="#DejaVuSans-35" x="83.789062"/>
       <use xlink:href="#DejaVuSans-2e" x="147.412109"/>
       <use xlink:href="#DejaVuSans-30" x="179.199219"/>
      </g>
     </g>
    </g>
    <g id="ytick_4">
     <g id="line2d_12">
      <g>
       <use xlink:href="#m4992a71a5d" x="57.6" y="207.146474" style="stroke: #000000; stroke-width: 0.8"/>
      </g>
     </g>
     <g id="text_12">
      <!-- −2.5 -->
      <g transform="translate(26.317187 210.945693) scale(0.1 -0.1)">
       <use xlink:href="#DejaVuSans-2212"/>
       <use xlink:href="#DejaVuSans-32" x="83.789062"/>
       <use xlink:href="#DejaVuSans-2e" x="147.412109"/>
       <use xlink:href="#DejaVuSans-35" x="179.199219"/>
      </g>
     </g>
    </g>
    <g id="ytick_5">
     <g id="line2d_13">
      <g>
       <use xlink:href="#m4992a71a5d" x="57.6" y="177.143647" style="stroke: #000000; stroke-width: 0.8"/>
      </g>
     </g>
     <g id="text_13">
      <!-- 0.0 -->
      <g transform="translate(34.696875 180.942865) scale(0.1 -0.1)">
       <use xlink:href="#DejaVuSans-30"/>
       <use xlink:href="#DejaVuSans-2e" x="63.623047"/>
       <use xlink:href="#DejaVuSans-30" x="95.410156"/>
      </g>
     </g>
    </g>
    <g id="ytick_6">
     <g id="line2d_14">
      <g>
       <use xlink:href="#m4992a71a5d" x="57.6" y="147.140819" style="stroke: #000000; stroke-width: 0.8"/>
      </g>
     </g>
     <g id="text_14">
      <!-- 2.5 -->
      <g transform="translate(34.696875 150.940038) scale(0.1 -0.1)">
       <use xlink:href="#DejaVuSans-32"/>
       <use xlink:href="#DejaVuSans-2e" x="63.623047"/>
       <use xlink:href="#DejaVuSans-35" x="95.410156"/>
      </g>
     </g>
    </g>
    <g id="ytick_7">
     <g id="line2d_15">
      <g>
       <use xlink:href="#m4992a71a5d" x="57.6" y="117.137991" style="stroke: #000000; stroke-width: 0.8"/>
      </g>
     </g>
     <g id="text_15">
      <!-- 5.0 -->
      <g transform="translate(34.696875 120.93721) scale(0.1 -0.1)">
       <use xlink:href="#DejaVuSans-35"/>
       <use xlink:href="#DejaVuSans-2e" x="63.623047"/>
       <use xlink:href="#DejaVuSans-30" x="95.410156"/>
      </g>
     </g>
    </g>
    <g id="ytick_8">
     <g id="line2d_16">
      <g>
       <use xlink:href="#m4992a71a5d" x="57.6" y="87.135164" style="stroke: #000000; stroke-width: 0.8"/>
      </g>
     </g>
     <g id="text_16">
      <!-- 7.5 -->
      <g transform="translate(34.696875 90.934382) scale(0.1 -0.1)">
       <use xlink:href="#DejaVuSans-37"/>
       <use xlink:href="#DejaVuSans-2e" x="63.623047"/>
       <use xlink:href="#DejaVuSans-35" x="95.410156"/>
      </g>
     </g>
    </g>
    <g id="ytick_9">
     <g id="line2d_17">
      <g>
       <use xlink:href="#m4992a71a5d" x="57.6" y="57.132336" style="stroke: #000000; stroke-width: 0.8"/>
      </g>
     </g>
     <g id="text_17">
      <!-- 10.0 -->
      <g transform="translate(28.334375 60.931555) scale(0.1 -0.1)">
       <use xlink:href="#DejaVuSans-31"/>
       <use xlink:href="#DejaVuSans-30" x="63.623047"/>
       <use xlink:href="#DejaVuSans-2e" x="127.246094"/>
       <use xlink:href="#DejaVuSans-30" x="159.033203"/>
      </g>
     </g>
    </g>
   </g>
   <g id="line2d_18">
    <path d="M 73.832727 177.143647 
L 74.274434 179.543873 
L 81.341744 179.543873 
L 81.783451 179.199433 
L 82.225158 179.543873 
L 82.666865 179.543873 
L 83.108571 176.240654 
L 83.550278 177.323892 
L 83.991985 177.142815 
L 84.433692 177.27098 
L 84.875399 178.050066 
L 85.317106 177.358893 
L 85.758813 177.236228 
L 86.200519 175.935278 
L 86.642226 177.032101 
L 87.967347 176.893394 
L 88.409054 176.447378 
L 88.850761 174.74342 
L 91.501002 174.74342 
L 92.384416 179.543873 
L 92.826122 178.923132 
L 93.267829 177.184271 
L 93.709536 179.543873 
L 94.151243 178.67849 
L 94.59295 179.543873 
L 101.218553 179.543873 
L 101.66026 174.74342 
L 102.101967 175.251319 
L 102.543673 179.543873 
L 106.077328 179.543873 
L 106.519035 174.74342 
L 106.960742 179.543873 
L 110.494397 179.543873 
L 110.936104 178.137953 
L 111.377811 179.543873 
L 115.353173 179.543873 
L 115.794879 179.262897 
L 116.236586 179.543873 
L 398.487273 179.543873 
L 398.487273 179.543873 
" clip-path="url(#pbc43985a11)" style="fill: none; stroke: #000000; stroke-width: 1.5; stroke-linecap: square"/>
   </g>
   <g id="line2d_19">
    <path d="M 73.832727 177.143647 
L 398.487273 177.143647 
L 398.487273 177.143647 
" clip-path="url(#pbc43985a11)" style="fill: none; stroke: #ff0000; stroke-width: 1.5; stroke-linecap: square"/>
   </g>
   <g id="line2d_20">
    <path d="M 73.832727 177.143647 
L 74.274434 171.084275 
L 74.716141 171.302696 
L 76.041262 171.096277 
L 76.924675 172.160777 
L 77.808089 172.128374 
L 78.691503 172.261586 
L 80.016623 172.357595 
L 80.900037 172.594018 
L 81.783451 172.766834 
L 82.225158 172.646823 
L 82.666865 173.094465 
L 83.108571 174.511798 
L 83.550278 175.427485 
L 83.991985 175.848724 
L 84.433692 176.005939 
L 84.875399 175.789919 
L 85.317106 175.433485 
L 85.758813 175.605102 
L 86.200519 176.400777 
L 86.642226 177.532483 
L 87.083933 177.802509 
L 87.967347 178.730196 
L 88.409054 179.319452 
L 89.292468 181.629669 
L 90.175881 182.679768 
L 90.617588 183.374634 
L 91.059295 183.683063 
L 91.942709 181.647671 
L 92.384416 180.053921 
L 92.826122 178.02693 
L 93.267829 177.239656 
L 93.709536 175.929132 
L 95.476364 169.287706 
L 96.359777 166.749467 
L 97.243191 163.795989 
L 97.684898 162.8599 
L 98.568312 158.477087 
L 99.010019 148.722568 
L 99.451725 134.659643 
L 100.335139 115.598246 
L 100.776846 118.252896 
L 101.218553 129.692374 
L 101.66026 146.987204 
L 102.101967 156.733323 
L 102.543673 160.175247 
L 102.98538 158.133855 
L 103.427087 153.160586 
L 103.868794 142.778408 
L 104.310501 128.303844 
L 104.752208 120.497108 
L 105.193915 116.636344 
L 106.077328 136.889453 
L 106.519035 153.441413 
L 106.960742 158.796317 
L 107.402449 158.427883 
L 107.844156 152.154891 
L 108.285863 135.464918 
L 109.169276 118.060878 
L 109.610983 117.808854 
L 110.494397 145.622676 
L 110.936104 154.309094 
L 111.377811 158.347475 
L 111.819518 158.535893 
L 112.261224 157.100558 
L 113.144638 138.03076 
L 114.028052 119.212987 
L 114.469759 118.752143 
L 114.911466 124.468282 
L 115.353173 134.329611 
L 115.794879 151.380818 
L 116.236586 158.169858 
L 116.678293 158.348675 
L 117.12 155.383196 
L 117.561707 146.159126 
L 118.445121 122.118461 
L 118.886827 119.03897 
L 119.328534 122.387286 
L 119.770241 129.574763 
L 120.211948 143.292056 
L 120.653655 152.391314 
L 121.095362 158.247866 
L 121.537069 155.803235 
L 123.303896 120.081869 
L 123.745603 121.447597 
L 124.18731 131.686962 
L 125.070724 157.736617 
L 125.51243 158.281469 
L 125.954137 153.243394 
L 126.395844 135.06048 
L 126.837551 122.053655 
L 127.279258 121.640816 
L 127.720965 140.031349 
L 128.162672 153.771444 
L 128.604378 155.606417 
L 129.046085 138.911643 
L 129.487792 128.596671 
L 129.929499 122.274475 
L 130.371206 121.123567 
L 130.812913 126.488072 
L 131.25462 143.473273 
L 131.696327 153.040575 
L 132.138033 157.041752 
L 133.021447 137.800339 
L 133.463154 126.011628 
L 133.904861 122.102859 
L 134.346568 129.578364 
L 135.229981 150.804764 
L 135.671688 156.343286 
L 136.113395 156.001254 
L 136.555102 150.187906 
L 136.996809 136.569023 
L 137.438516 127.422961 
L 137.880223 122.185667 
L 138.321929 126.580481 
L 138.763636 133.899971 
L 139.64705 155.582414 
L 140.088757 154.361899 
L 140.530464 146.034315 
L 140.972171 131.922185 
L 141.413878 124.255862 
L 141.855584 122.932137 
L 142.297291 130.206023 
L 142.738998 150.312718 
L 143.180705 155.810436 
L 143.622412 152.374512 
L 144.064119 142.996828 
L 144.505826 128.926702 
L 144.947532 123.841823 
L 145.389239 124.685503 
L 146.71436 151.39282 
L 147.156067 155.186377 
L 147.597774 153.562624 
L 148.481187 137.854344 
L 148.922894 126.7785 
L 149.364601 124.499485 
L 150.248015 143.12284 
L 150.689722 151.631642 
L 151.131429 154.723133 
L 151.573135 152.795752 
L 152.014842 147.161221 
L 152.456549 128.192233 
L 152.898256 124.329069 
L 153.339963 126.796501 
L 154.223377 147.865687 
L 154.665083 153.542222 
L 155.10679 152.757348 
L 155.548497 146.102721 
L 156.431911 128.677079 
L 156.873618 125.625191 
L 157.315325 145.119828 
L 157.757032 153.653833 
L 158.198738 148.129712 
L 158.640445 135.59093 
L 159.082152 127.319751 
L 159.523859 127.077328 
L 159.965566 144.698589 
L 160.407273 153.371806 
L 160.84898 149.69946 
L 161.732393 127.250144 
L 162.1741 128.864296 
L 163.057514 148.072107 
L 163.499221 152.754948 
L 163.940928 151.242805 
L 164.382635 130.129216 
L 164.824341 125.974424 
L 165.266048 131.852578 
L 166.149462 147.714473 
L 166.591169 152.073284 
L 167.032876 151.252406 
L 167.916289 137.373098 
L 168.357996 130.07281 
L 168.799703 126.25405 
L 169.24141 127.41816 
L 170.124824 143.798504 
L 170.566531 150.852769 
L 171.008237 151.998877 
L 171.449944 148.088908 
L 171.891651 134.874463 
L 172.333358 128.9027 
L 172.775065 126.586482 
L 173.216772 131.366532 
L 174.100186 145.518266 
L 174.541892 150.619947 
L 174.983599 151.893267 
L 175.867013 140.728615 
L 176.30872 131.042502 
L 176.750427 127.211741 
L 177.192134 129.665972 
L 177.63384 143.887312 
L 178.075547 150.067895 
L 178.517254 150.036692 
L 178.958961 135.842954 
L 179.400668 127.708587 
L 179.842375 129.950399 
L 180.284082 142.155549 
L 180.725788 149.653856 
L 181.167495 150.804764 
L 182.492616 127.664183 
L 182.934323 129.973201 
L 183.817737 150.637948 
L 184.259443 149.652656 
L 184.70115 137.681527 
L 185.142857 131.229719 
L 185.584564 127.966612 
L 186.026271 130.556456 
L 187.351391 150.425528 
L 187.793098 147.761277 
L 188.234805 141.641901 
L 188.676512 130.400441 
L 189.118219 128.714282 
L 189.559926 142.245558 
L 190.001633 149.905879 
L 190.44334 148.552152 
L 191.326753 131.946187 
L 191.76846 128.522264 
L 192.210167 142.16395 
L 192.651874 147.167221 
L 193.093581 149.869876 
L 193.535288 146.702778 
L 193.976994 140.924233 
L 194.418701 132.751463 
L 194.860408 129.440351 
L 195.302115 129.068316 
L 195.743822 131.996592 
L 196.627236 146.455554 
L 197.068942 149.616652 
L 198.83577 129.377945 
L 199.277477 130.408842 
L 199.719184 139.852532 
L 200.160891 145.620276 
L 200.602597 149.116205 
L 201.044304 148.584555 
L 201.486011 142.780808 
L 201.927718 134.990874 
L 202.369425 130.617662 
L 202.811132 129.735578 
L 203.252839 132.971083 
L 203.694545 143.665291 
L 204.136252 148.604957 
L 204.577959 147.392843 
L 205.461373 131.98339 
L 205.90308 129.74998 
L 206.344787 132.343424 
L 206.786494 139.776925 
L 207.2282 145.03462 
L 207.669907 148.445342 
L 208.111614 148.264125 
L 208.995028 133.940775 
L 209.436735 130.558856 
L 209.878442 132.445434 
L 210.761855 146.379947 
L 211.203562 148.537751 
L 211.645269 147.347238 
L 212.528683 134.332012 
L 212.97039 130.212023 
L 213.412096 132.82347 
L 213.853803 138.037961 
L 214.29551 145.854298 
L 214.737217 148.156115 
L 215.178924 147.457649 
L 215.620631 143.767301 
L 216.504045 132.29422 
L 216.945751 130.405242 
L 217.829165 141.094649 
L 218.270872 147.301634 
L 218.712579 144.360157 
L 219.154286 135.496121 
L 219.595993 130.887687 
L 220.037699 132.096201 
L 220.921113 145.577071 
L 221.36282 147.674869 
L 221.804527 144.984216 
L 222.246234 140.246169 
L 222.687941 132.540243 
L 223.129647 130.899688 
L 223.571354 132.475437 
L 224.454768 147.320836 
L 225.338182 135.780548 
L 225.779889 131.944987 
L 226.221596 131.287325 
L 226.663302 135.69534 
L 227.105009 145.368252 
L 227.546716 146.580366 
L 227.988423 141.970732 
L 228.43013 135.295703 
L 228.871837 131.611355 
L 229.313544 132.207811 
L 230.196957 144.543774 
L 230.638664 146.944 
L 231.080371 145.937105 
L 231.963785 134.258805 
L 232.405492 131.638958 
L 232.847199 134.408819 
L 233.288905 141.964731 
L 233.730612 146.628371 
L 234.172319 142.538385 
L 234.614026 136.399807 
L 235.055733 132.788666 
L 235.939147 143.187646 
L 236.380853 146.30194 
L 236.82256 145.735486 
L 237.264267 142.081142 
L 238.147681 133.737956 
L 238.589388 132.042196 
L 239.031095 134.63564 
L 239.914508 145.616675 
L 240.356215 144.112934 
L 241.239629 134.028383 
L 241.681336 132.516241 
L 243.006456 146.160326 
L 243.448163 143.931716 
L 243.88987 134.001981 
L 244.331577 133.019088 
L 244.773284 136.181386 
L 245.656698 145.749888 
L 246.098404 143.700095 
L 246.981818 133.853167 
L 247.423525 132.673455 
L 247.865232 134.758052 
L 248.306939 138.653619 
L 248.748646 143.560881 
L 249.190353 145.619075 
L 249.632059 144.140536 
L 250.073766 138.941646 
L 250.515473 135.204494 
L 250.95718 132.876274 
L 251.398887 134.878063 
L 252.282301 145.191835 
L 252.724007 145.194235 
L 253.165714 141.178657 
L 253.607421 135.474519 
L 254.049128 133.187104 
L 254.490835 134.533631 
L 254.932542 137.973155 
L 255.374249 142.891218 
L 255.815955 145.326248 
L 256.257662 142.091943 
L 256.699369 136.954259 
L 257.141076 133.508734 
L 258.02449 143.732498 
L 258.466197 144.770595 
L 259.34961 138.644018 
L 259.791317 133.923973 
L 260.233024 133.848366 
L 261.116438 142.099144 
L 261.558145 144.316953 
L 261.999852 144.867805 
L 262.441558 142.172351 
L 263.324972 134.520429 
L 263.766679 133.903571 
L 264.208386 135.528524 
L 264.650093 139.732521 
L 265.0918 142.791609 
L 265.533506 144.739393 
L 265.975213 139.413291 
L 266.858627 134.175997 
L 267.300334 134.446022 
L 268.625455 143.887312 
L 269.067161 144.438164 
L 269.508868 139.073659 
L 269.950575 135.098884 
L 270.392282 134.184398 
L 270.833989 136.825847 
L 271.275696 141.664703 
L 271.717403 143.949718 
L 272.159109 144.211343 
L 273.042523 135.956965 
L 273.48423 134.401618 
L 273.925937 134.668043 
L 274.367644 137.361097 
L 274.809351 142.253958 
L 275.251058 144.18614 
L 275.692764 142.886418 
L 277.017885 134.695646 
L 277.459592 135.007675 
L 277.901299 137.767936 
L 278.343006 142.629594 
L 278.784712 143.96892 
L 279.226419 141.431881 
L 280.109833 135.132487 
L 280.55154 134.596037 
L 280.993247 136.519818 
L 281.87666 143.156443 
L 282.318367 143.712096 
L 283.643488 135.940163 
L 284.085195 134.74125 
L 284.526902 135.628134 
L 284.968609 139.257276 
L 285.410315 141.808716 
L 285.852022 143.523678 
L 286.293729 143.422868 
L 286.735436 141.676704 
L 287.177143 138.090766 
L 287.61885 135.738544 
L 288.060557 135.139688 
L 288.94397 142.198753 
L 289.385677 143.430069 
L 289.827384 143.136041 
L 290.269091 140.412985 
L 290.710798 136.870251 
L 291.152505 135.262099 
L 291.594212 135.263299 
L 292.035918 136.689034 
L 292.477625 140.36618 
L 292.919332 142.26836 
L 293.361039 143.308858 
L 293.802746 142.553987 
L 295.127866 136.076976 
L 295.569573 135.235697 
L 296.01128 136.051774 
L 296.452987 138.081165 
L 296.894694 141.718708 
L 297.336401 143.144442 
L 297.778108 142.469979 
L 298.661521 138.202376 
L 299.103228 135.428915 
L 299.544935 135.946164 
L 299.986642 137.628722 
L 300.428349 141.385076 
L 300.870056 142.881617 
L 301.311763 142.58639 
L 301.753469 141.053845 
L 302.636883 136.127381 
L 303.07859 135.740944 
L 303.520297 136.984262 
L 304.403711 141.880723 
L 304.845417 142.600791 
L 305.287124 139.041256 
L 305.728831 136.475414 
L 306.170538 135.949764 
L 306.612245 137.131876 
L 307.053952 139.826129 
L 307.495659 141.497887 
L 307.937365 142.601991 
L 309.262486 136.763441 
L 309.704193 135.947364 
L 310.587607 141.125852 
L 311.029314 142.504782 
L 311.47102 141.32027 
L 312.354434 136.22819 
L 312.796141 136.338601 
L 313.237848 140.064952 
L 313.679555 142.143548 
L 314.121262 142.201153 
L 314.562968 141.083848 
L 315.446382 137.595119 
L 315.888089 136.243792 
L 316.329796 138.052362 
L 316.771503 140.659008 
L 317.21321 142.046339 
L 317.654917 140.914632 
L 318.53833 137.410302 
L 318.980037 136.402207 
L 319.421744 137.259088 
L 319.863451 138.839637 
L 320.305158 141.135453 
L 320.746865 141.817117 
L 321.188571 140.78142 
L 322.071985 136.935057 
L 322.513692 136.703435 
L 323.397106 140.064952 
L 323.838813 141.710307 
L 324.280519 141.608297 
L 324.722226 140.416585 
L 325.163933 138.209577 
L 325.60564 136.777842 
L 326.047347 137.172679 
L 326.930761 140.973438 
L 327.372468 141.6311 
L 327.814174 140.710613 
L 328.255881 137.955153 
L 328.697588 136.929056 
L 329.139295 137.121075 
L 329.581002 137.976755 
L 330.464416 141.365875 
L 330.906122 141.269866 
L 331.347829 140.139359 
L 331.789536 138.198776 
L 332.231243 137.047868 
L 333.114657 139.346084 
L 333.556364 141.121052 
L 333.998071 141.370675 
L 334.439777 140.761018 
L 334.881484 139.685716 
L 335.323191 137.670726 
L 335.764898 137.351496 
L 336.206605 138.615215 
L 336.648312 140.446588 
L 337.090019 141.203859 
L 337.531725 140.716613 
L 337.973432 138.213177 
L 338.415139 137.321493 
L 338.856846 138.412396 
L 339.298553 140.398583 
L 339.74026 141.029843 
L 340.181967 140.704612 
L 340.623673 139.714519 
L 341.06538 138.059563 
L 341.507087 137.489509 
L 342.390501 139.918538 
L 342.832208 140.656608 
L 343.273915 140.89063 
L 343.715622 140.236568 
L 344.157328 138.258782 
L 344.599035 137.647924 
L 345.040742 138.291185 
L 345.924156 140.332577 
L 346.365863 140.755017 
L 346.80757 140.303775 
L 347.690983 137.808739 
L 349.016104 140.603803 
L 349.457811 139.922139 
L 349.899518 138.723226 
L 350.341224 137.951553 
L 350.782931 138.011558 
L 351.224638 138.397995 
L 351.666345 139.388088 
L 352.108052 140.074553 
L 352.549759 140.453789 
L 352.991466 140.092555 
L 353.433173 138.899642 
L 353.874879 138.154372 
L 354.316586 138.706424 
L 354.758293 139.62451 
L 355.2 140.175362 
L 355.641707 140.315776 
L 356.083414 140.020548 
L 356.525121 139.101261 
L 356.966827 138.478402 
L 357.408534 138.23838 
L 357.850241 138.527607 
L 358.733655 139.919738 
L 359.175362 140.156161 
L 360.500482 138.539608 
L 360.942189 138.596014 
L 361.825603 139.697717 
L 362.26731 139.986945 
L 362.709017 139.874134 
L 363.59243 138.732826 
L 364.034137 138.530007 
L 364.475844 138.605614 
L 365.359258 139.382088 
L 365.800965 139.83573 
L 366.242672 139.83573 
L 366.684378 139.244075 
L 367.126085 138.870839 
L 367.567792 138.687222 
L 368.009499 138.729226 
L 368.451206 139.30048 
L 368.892913 139.629311 
L 369.33462 139.684516 
L 370.218033 139.19727 
L 370.65974 138.88164 
L 371.101447 138.849237 
L 371.984861 139.451694 
L 372.426568 139.556104 
L 373.751688 139.018453 
L 374.193395 138.988451 
L 375.518516 139.40969 
L 376.843636 139.127664 
L 378.610464 139.260876 
L 382.585826 139.245275 
L 398.487273 139.245275 
L 398.487273 139.245275 
" clip-path="url(#pbc43985a11)" style="fill: none; stroke: #0000ff; stroke-width: 1.5; stroke-linecap: square"/>
   </g>
   <g id="line2d_21">
    <path d="M 73.832727 177.143647 
L 398.487273 177.143647 
L 398.487273 177.143647 
" clip-path="url(#pbc43985a11)" style="fill: none; stroke: #bf00bf; stroke-width: 1.5; stroke-linecap: square"/>
   </g>
   <g id="line2d_22">
    <path d="M 73.832727 177.143647 
L 74.274434 179.125033 
L 75.157848 175.645905 
L 75.599555 176.601195 
L 76.041262 178.518976 
L 76.482968 177.588888 
L 76.924675 179.614679 
L 77.366382 176.533989 
L 77.808089 177.542084 
L 78.249796 177.905718 
L 78.691503 176.389975 
L 79.13321 176.021541 
L 79.574917 177.828911 
L 80.016623 178.042531 
L 80.45833 178.616185 
L 80.900037 177.28166 
L 81.341744 178.396565 
L 81.783451 175.973536 
L 82.225158 178.313757 
L 82.666865 182.626963 
L 83.108571 188.169086 
L 83.550278 182.862185 
L 83.991985 182.070111 
L 84.433692 178.797402 
L 84.875399 171.213888 
L 85.758813 182.251328 
L 86.200519 187.619434 
L 86.642226 178.862208 
L 87.083933 181.038014 
L 87.52564 182.125316 
L 87.967347 184.365927 
L 88.409054 183.43944 
L 88.850761 189.287591 
L 89.292468 181.10762 
L 89.734174 181.687275 
L 90.175881 182.91019 
L 90.617588 182.253728 
L 91.059295 177.849313 
L 91.501002 167.967582 
L 92.384416 165.104112 
L 93.267829 173.238478 
L 93.709536 167.021893 
L 94.151243 169.447321 
L 94.59295 163.327944 
L 95.034657 162.11463 
L 95.476364 164.937296 
L 95.918071 165.874584 
L 96.359777 163.870396 
L 96.801484 163.469558 
L 97.243191 165.237324 
L 97.684898 166.001796 
L 98.126605 153.083779 
L 98.568312 166.99549 
L 99.010019 64.675047 
L 99.451725 53.568 
L 99.893432 80.329322 
L 100.776846 225.88144 
L 101.218553 285.349444 
L 101.66026 291.392014 
L 102.101967 253.227217 
L 102.98538 96.679663 
L 103.427087 84.896953 
L 103.868794 57.237946 
L 104.310501 74.939614 
L 104.752208 114.57935 
L 105.635622 266.336053 
L 106.077328 295.488 
L 106.519035 267.818192 
L 106.960742 191.496999 
L 107.402449 170.382209 
L 107.844156 84.516517 
L 108.285863 62.06 
L 108.72757 89.707006 
L 110.05269 284.254941 
L 110.494397 287.818077 
L 110.936104 257.547624 
L 111.377811 187.273801 
L 111.819518 177.852913 
L 112.702931 76.306543 
L 113.144638 62.612052 
L 113.586345 85.669825 
L 114.911466 251.100617 
L 115.353173 285.433452 
L 115.794879 267.767787 
L 116.236586 183.271424 
L 116.678293 174.344983 
L 117.12 111.82389 
L 117.561707 73.169447 
L 118.003414 71.048848 
L 119.770241 270.056403 
L 120.211948 284.66538 
L 120.653655 258.628926 
L 121.095362 179.371056 
L 121.978776 76.509362 
L 122.420482 67.04047 
L 122.862189 99.51073 
L 124.18731 273.025483 
L 124.629017 276.795038 
L 125.070724 204.02738 
L 125.51243 177.666896 
L 125.954137 107.447078 
L 126.395844 74.938414 
L 127.279258 209.240672 
L 127.720965 280.196159 
L 128.162672 242.108169 
L 128.604378 130.092012 
L 129.046085 74.743996 
L 129.487792 97.104503 
L 131.25462 274.681639 
L 131.696327 241.808141 
L 132.138033 198.272838 
L 132.57974 92.93771 
L 133.021447 76.943803 
L 133.463154 115.011391 
L 134.346568 256.043883 
L 134.788275 275.477314 
L 135.229981 250.529363 
L 136.555102 103.705125 
L 136.996809 81.389022 
L 137.438516 109.8029 
L 138.321929 237.526137 
L 138.763636 266.444063 
L 139.205343 267.130527 
L 140.530464 91.396765 
L 140.972171 93.78259 
L 141.855584 190.746929 
L 142.297291 252.297129 
L 142.738998 244.76522 
L 143.622412 123.266969 
L 144.064119 88.650906 
L 144.505826 108.224751 
L 144.947532 151.658045 
L 145.830946 261.506797 
L 146.272653 265.509175 
L 146.71436 235.85318 
L 148.039481 98.105397 
L 148.481187 87.09556 
L 148.922894 126.35246 
L 149.806308 260.937944 
L 150.248015 263.6574 
L 150.689722 230.34106 
L 152.014842 103.166274 
L 152.456549 119.190185 
L 152.898256 162.286246 
L 153.339963 223.027571 
L 153.78167 263.263763 
L 154.223377 247.415069 
L 154.665083 204.781051 
L 155.10679 140.915832 
L 155.548497 101.781344 
L 155.990204 91.645189 
L 156.431911 118.848152 
L 156.873618 205.177089 
L 157.315325 254.040894 
L 157.757032 192.752318 
L 158.198738 111.81909 
L 158.640445 97.170509 
L 159.082152 133.36112 
L 159.523859 216.33694 
L 159.965566 252.973993 
L 160.84898 124.481483 
L 161.290686 98.104197 
L 161.732393 138.66802 
L 162.1741 227.309574 
L 162.615807 258.571321 
L 163.057514 238.062588 
L 163.940928 140.26057 
L 164.382635 120.823539 
L 165.266048 239.907162 
L 165.707755 256.257503 
L 166.149462 234.763477 
L 166.591169 200.891485 
L 167.032876 143.43727 
L 167.474583 107.839515 
L 167.916289 101.991364 
L 168.357996 125.496779 
L 169.683117 249.64608 
L 170.124824 248.281551 
L 170.566531 211.334869 
L 171.449944 123.988237 
L 171.891651 107.243059 
L 172.333358 134.30921 
L 173.216772 232.945306 
L 173.658479 250.60137 
L 174.100186 241.445707 
L 174.983599 180.476361 
L 175.425306 119.627026 
L 175.867013 105.423687 
L 176.30872 123.922231 
L 176.750427 160.822108 
L 177.192134 220.404124 
L 177.63384 243.885537 
L 178.075547 210.944832 
L 178.517254 144.436964 
L 178.958961 109.463268 
L 179.400668 157.188166 
L 179.842375 219.962482 
L 180.284082 244.846827 
L 180.725788 211.434478 
L 181.609202 111.157828 
L 182.050909 118.035676 
L 182.934323 216.075316 
L 183.37603 244.259972 
L 184.259443 148.868982 
L 184.70115 109.559277 
L 185.142857 127.450563 
L 186.026271 218.210317 
L 186.467978 242.342191 
L 186.909685 230.216248 
L 187.351391 168.214805 
L 187.793098 134.858861 
L 188.234805 113.103211 
L 188.676512 139.468496 
L 189.559926 239.397114 
L 190.44334 143.136041 
L 190.885046 113.865283 
L 191.326753 131.244121 
L 191.76846 173.548108 
L 192.210167 237.047292 
L 192.651874 219.751262 
L 193.093581 184.040697 
L 193.535288 133.477531 
L 193.976994 115.875472 
L 194.418701 128.696281 
L 194.860408 155.246383 
L 195.743822 219.807667 
L 196.185529 239.163092 
L 196.627236 221.32221 
L 197.068942 180.122327 
L 197.510649 124.611096 
L 197.952356 116.121495 
L 198.394063 130.699269 
L 198.83577 162.051024 
L 199.277477 205.342704 
L 199.719184 237.562141 
L 200.160891 223.472813 
L 201.486011 121.547207 
L 201.927718 123.476989 
L 202.369425 148.843779 
L 202.811132 192.029849 
L 203.252839 221.760251 
L 203.694545 229.161349 
L 204.136252 194.859716 
L 204.577959 144.969814 
L 205.019666 119.426607 
L 205.461373 139.5141 
L 205.90308 185.819264 
L 206.344787 215.386451 
L 206.786494 234.925492 
L 207.2282 222.37711 
L 208.111614 159.422776 
L 208.553321 121.774028 
L 208.995028 131.804573 
L 209.436735 153.657433 
L 209.878442 213.973918 
L 210.320148 232.977709 
L 210.761855 213.139839 
L 211.645269 150.029491 
L 212.086976 122.125661 
L 212.528683 130.70527 
L 212.97039 182.953394 
L 213.412096 214.404758 
L 213.853803 230.755099 
L 214.29551 214.560773 
L 215.620631 131.12651 
L 216.062338 124.597894 
L 216.504045 144.210143 
L 216.945751 176.987632 
L 217.387458 223.615626 
L 217.829165 228.873322 
L 218.270872 198.307641 
L 218.712579 135.516523 
L 219.154286 130.454446 
L 220.479406 228.418479 
L 220.921113 211.849717 
L 221.36282 170.460217 
L 221.804527 142.069141 
L 222.246234 129.54236 
L 222.687941 147.57286 
L 224.013061 227.642006 
L 224.454768 166.984689 
L 224.896475 129.923996 
L 225.338182 132.780265 
L 226.221596 185.333218 
L 226.663302 220.808562 
L 227.105009 208.461798 
L 227.546716 157.959839 
L 227.988423 132.593048 
L 228.43013 135.859756 
L 229.75525 223.273594 
L 230.196957 211.972129 
L 231.522078 131.151712 
L 231.963785 141.717508 
L 232.847199 211.500485 
L 233.288905 220.350119 
L 233.730612 168.489631 
L 234.172319 137.349096 
L 234.614026 135.008875 
L 235.055733 197.730387 
L 235.49744 221.765052 
L 235.939147 214.397558 
L 236.380853 190.328089 
L 236.82256 156.966145 
L 237.264267 137.17748 
L 237.705974 134.470025 
L 238.147681 148.417739 
L 239.031095 210.318373 
L 239.472801 219.736861 
L 239.914508 196.939512 
L 240.356215 146.995605 
L 240.797922 134.564834 
L 241.239629 148.63976 
L 242.123043 217.227424 
L 242.56475 213.124238 
L 243.448163 147.754077 
L 243.88987 150.876771 
L 244.331577 191.739422 
L 244.773284 213.99672 
L 245.214991 214.907606 
L 245.656698 168.230406 
L 246.098404 148.290527 
L 246.540111 137.259088 
L 246.981818 153.715038 
L 247.865232 205.121883 
L 248.306939 216.54096 
L 248.748646 206.800842 
L 249.190353 184.856773 
L 249.632059 152.931365 
L 250.073766 137.700729 
L 250.515473 146.891195 
L 251.398887 203.687748 
L 251.840594 215.512463 
L 253.165714 140.858227 
L 253.607421 147.188823 
L 254.049128 169.521728 
L 254.490835 200.661063 
L 254.932542 213.702692 
L 255.374249 206.223587 
L 255.815955 179.30025 
L 256.257662 144.92541 
L 256.699369 143.163644 
L 257.141076 186.589737 
L 257.582783 213.120637 
L 258.02449 200.051405 
L 258.466197 165.628561 
L 258.907904 146.083519 
L 259.34961 142.448377 
L 259.791317 163.024316 
L 260.674731 211.699703 
L 261.116438 206.242789 
L 261.558145 193.856422 
L 262.441558 148.256924 
L 262.883265 143.668892 
L 263.324972 159.021939 
L 263.766679 186.162497 
L 264.208386 202.469633 
L 264.650093 210.403581 
L 265.0918 202.911275 
L 265.533506 179.169437 
L 265.975213 144.470567 
L 266.41692 149.69946 
L 266.858627 165.170118 
L 267.300334 192.182264 
L 267.742041 207.175277 
L 268.183748 208.358588 
L 268.625455 193.210761 
L 269.508868 144.857004 
L 269.950575 157.65981 
L 270.833989 204.795453 
L 271.275696 204.931065 
L 271.717403 190.137271 
L 272.600816 145.589073 
L 273.042523 153.464215 
L 273.48423 167.725159 
L 273.925937 190.287285 
L 274.367644 204.748648 
L 274.809351 201.246718 
L 275.692764 157.692213 
L 276.134471 148.028903 
L 276.576178 149.423434 
L 277.017885 165.863783 
L 277.459592 192.627506 
L 277.901299 205.580327 
L 278.343006 198.101222 
L 279.226419 152.151291 
L 279.668126 149.830272 
L 280.55154 180.093525 
L 280.993247 199.88219 
L 281.434954 205.663134 
L 281.87666 191.111763 
L 282.760074 152.213697 
L 283.201781 149.901079 
L 283.643488 157.985041 
L 284.085195 173.722124 
L 284.526902 193.796416 
L 284.968609 203.823361 
L 285.410315 200.496647 
L 286.735436 154.649927 
L 287.177143 151.656844 
L 287.61885 161.573379 
L 288.060557 185.99208 
L 288.502263 203.118895 
L 288.94397 195.724998 
L 290.269091 152.46332 
L 290.710798 155.672423 
L 291.594212 184.463136 
L 292.035918 196.890308 
L 292.477625 200.848281 
L 292.919332 194.998929 
L 293.361039 176.12115 
L 294.244453 153.913057 
L 294.68616 153.264996 
L 295.127866 161.26495 
L 296.01128 191.031355 
L 296.452987 200.002201 
L 296.894694 195.793404 
L 297.336401 177.91892 
L 297.778108 164.681672 
L 298.219814 155.830838 
L 298.661521 155.338791 
L 299.103228 175.234267 
L 299.544935 188.941958 
L 299.986642 197.771191 
L 300.428349 197.750789 
L 301.311763 167.175507 
L 301.753469 159.093945 
L 302.195176 156.508902 
L 302.636883 166.066603 
L 303.07859 182.678568 
L 303.520297 194.103645 
L 303.962004 199.237729 
L 304.403711 192.285474 
L 304.845417 169.196498 
L 305.287124 155.728828 
L 305.728831 163.398751 
L 306.170538 182.335336 
L 306.612245 194.126447 
L 307.053952 199.330138 
L 307.495659 193.061947 
L 308.379072 158.588698 
L 308.820779 156.462097 
L 309.262486 163.753985 
L 310.1459 196.464267 
L 310.587607 194.176852 
L 311.47102 162.365454 
L 311.912727 158.796317 
L 313.237848 195.660192 
L 314.562968 162.208239 
L 315.004675 158.775915 
L 315.446382 161.756996 
L 315.888089 175.002645 
L 316.329796 194.128847 
L 316.771503 193.568394 
L 317.21321 172.970853 
L 317.654917 159.621995 
L 318.096623 158.6163 
L 318.53833 162.688284 
L 319.421744 189.616422 
L 319.863451 195.237752 
L 320.305158 190.013659 
L 320.746865 171.56192 
L 321.188571 163.535564 
L 321.630278 161.501372 
L 322.071985 168.974477 
L 322.955399 193.20356 
L 323.397106 191.998647 
L 324.722226 162.450662 
L 325.163933 162.311449 
L 326.489054 192.412686 
L 326.930761 187.963866 
L 327.372468 174.384586 
L 327.814174 165.19292 
L 328.255881 165.813379 
L 328.697588 172.93125 
L 329.139295 183.593054 
L 329.581002 188.664732 
L 330.022709 191.032555 
L 330.464416 183.050603 
L 330.906122 170.399011 
L 331.347829 166.15061 
L 331.789536 164.720076 
L 332.231243 174.348583 
L 332.67295 188.676733 
L 333.114657 191.105762 
L 334.439777 168.236407 
L 334.881484 163.964004 
L 335.323191 169.030882 
L 335.764898 182.184122 
L 336.206605 188.949159 
L 336.648312 186.682145 
L 337.090019 179.19704 
L 337.531725 169.518128 
L 337.973432 167.638751 
L 338.415139 176.313168 
L 338.856846 188.051475 
L 339.298553 185.429227 
L 339.74026 179.597878 
L 340.181967 171.041071 
L 340.623673 168.070791 
L 341.06538 168.910871 
L 341.948794 187.129788 
L 342.390501 186.40732 
L 342.832208 183.570252 
L 343.715622 168.642045 
L 344.157328 169.063285 
L 344.599035 175.645905 
L 345.040742 184.92518 
L 345.482449 187.373411 
L 345.924156 183.217419 
L 346.365863 175.884728 
L 346.80757 170.801049 
L 347.249276 167.692756 
L 347.690983 178.650989 
L 348.13269 185.716054 
L 348.574397 185.845667 
L 349.457811 170.579028 
L 349.899518 169.75455 
L 350.782931 179.608679 
L 351.224638 183.285825 
L 351.666345 184.374328 
L 352.108052 182.305333 
L 352.549759 178.059333 
L 352.991466 172.157177 
L 353.433173 170.142187 
L 353.874879 174.257374 
L 354.316586 181.684875 
L 354.758293 183.601455 
L 356.083414 172.990055 
L 356.525121 170.182991 
L 356.966827 173.743726 
L 357.408534 178.386964 
L 357.850241 181.398047 
L 358.291948 182.59216 
L 358.733655 179.871504 
L 359.617069 172.19678 
L 360.058776 172.031165 
L 360.500482 173.406494 
L 360.942189 180.747586 
L 361.383896 182.464948 
L 361.825603 181.783284 
L 362.709017 175.753916 
L 363.150724 173.034459 
L 363.59243 174.789025 
L 364.034137 175.756316 
L 364.475844 179.326652 
L 364.917551 180.819593 
L 365.359258 181.028413 
L 365.800965 178.56218 
L 366.242672 177.642894 
L 366.684378 174.09896 
L 367.126085 174.347383 
L 367.567792 176.176355 
L 368.009499 178.66539 
L 368.451206 180.514764 
L 368.892913 179.701088 
L 369.33462 177.873315 
L 369.776327 175.451487 
L 370.218033 174.603007 
L 370.65974 174.749421 
L 371.101447 178.198546 
L 371.543154 179.653083 
L 371.984861 178.439769 
L 372.426568 176.888022 
L 372.868275 176.100748 
L 373.309981 176.675602 
L 373.751688 176.164354 
L 374.635102 179.216242 
L 375.076809 178.193745 
L 375.518516 177.766505 
L 375.960223 176.418778 
L 376.401929 176.563992 
L 376.843636 178.088136 
L 377.285343 177.471277 
L 377.72705 177.908119 
L 379.052171 176.702005 
L 379.493878 177.906918 
L 379.935584 176.641999 
L 380.377291 177.60569 
L 380.818998 175.943533 
L 381.260705 177.596089 
L 381.702412 176.747609 
L 382.144119 177.024835 
L 382.585826 176.800414 
L 383.469239 177.002033 
L 383.910946 177.485679 
L 384.352653 174.85023 
L 384.79436 176.530389 
L 386.119481 177.564886 
L 386.561187 176.629998 
L 387.002894 177.310462 
L 387.444601 176.978031 
L 387.886308 177.639293 
L 388.328015 176.362373 
L 388.769722 178.808203 
L 389.211429 176.6552 
L 390.094842 176.97323 
L 390.536549 177.206052 
L 390.978256 177.764105 
L 391.419963 178.620986 
L 391.86167 176.663601 
L 392.303377 176.946828 
L 392.745083 177.050038 
L 393.18679 176.894023 
L 393.628497 179.155036 
L 394.070204 177.152047 
L 394.511911 176.813615 
L 394.953618 177.650094 
L 395.395325 176.687604 
L 395.837032 176.43558 
L 396.720445 177.574487 
L 397.162152 176.885622 
L 398.045566 177.671696 
L 398.487273 176.814816 
L 398.487273 176.814816 
" clip-path="url(#pbc43985a11)" style="fill: none; stroke: #008000; stroke-width: 1.5; stroke-linecap: square"/>
   </g>
   <g id="patch_3">
    <path d="M 57.6 307.584 
L 57.6 41.472 
" style="fill: none; stroke: #000000; stroke-width: 0.8; stroke-linejoin: miter; stroke-linecap: square"/>
   </g>
   <g id="patch_4">
    <path d="M 414.72 307.584 
L 414.72 41.472 
" style="fill: none; stroke: #000000; stroke-width: 0.8; stroke-linejoin: miter; stroke-linecap: square"/>
   </g>
   <g id="patch_5">
    <path d="M 57.6 307.584 
L 414.72 307.584 
" style="fill: none; stroke: #000000; stroke-width: 0.8; stroke-linejoin: miter; stroke-linecap: square"/>
   </g>
   <g id="patch_6">
    <path d="M 57.6 41.472 
L 414.72 41.472 
" style="fill: none; stroke: #000000; stroke-width: 0.8; stroke-linejoin: miter; stroke-linecap: square"/>
   </g>
  </g>
 </g>
 <defs>
  <clipPath id="pbc43985a11">
   <rect x="57.6" y="41.472" width="357.12" height="266.112"/>
  </clipPath>
 </defs>
</svg>
